<svg width="71" height="70" viewBox="0 0 71 70" fill="none" xmlns="http://www.w3.org/2000/svg">
<path d="M11.18 36.2558L15.44 31.5458L22.19 24.1358L15.36 24.1958L15.46 23.8158C15.59 23.3458 15.74 22.8858 15.9 22.4258C17.1153 19.0117 19.2142 15.981 21.9829 13.6428C24.7515 11.3046 28.0907 9.74249 31.66 9.11578C32.13 8.99578 32.6 8.88577 33.09 8.79577C35.6926 8.27692 38.3543 8.11877 41 8.32577L41.66 8.39578L42.44 8.47576C42.89 8.47576 43.34 8.59577 43.78 8.66577C44.22 8.73577 44.9 8.87575 45.45 8.99575L45.67 9.04577C46.19 9.16577 46.67 9.30577 47.21 9.45577L47.44 9.47576C47.94 9.62576 48.44 9.78575 48.92 9.96575L49.16 10.0557C49.66 10.2358 50.16 10.4358 50.63 10.6358L50.75 10.6958C51.23 10.9091 51.7 11.1291 52.16 11.3558L52.29 11.4258C52.75 11.6558 53.2 11.9058 53.65 12.1658L53.86 12.2958C54.29 12.5458 54.71 12.8157 55.12 13.0857L55.33 13.2358C55.74 13.5158 56.15 13.8058 56.53 14.1058L56.68 14.2258C57.08 14.5358 57.47 14.8658 57.85 15.2258C58.23 15.5558 58.59 15.9058 58.94 16.2258L59.09 16.3758C59.42 16.7158 59.74 17.0658 60.09 17.3758L60.26 17.5758C60.56 17.9258 60.85 18.2958 61.12 18.6658L61.26 18.8458C61.54 19.2358 61.81 19.6258 62.06 20.0158L62.12 20.1058C62.36 20.4924 62.59 20.8924 62.81 21.3057L62.89 21.4458C63.1 21.8458 63.29 22.2558 63.48 22.6758C63.48 22.7458 63.54 22.8258 63.58 22.9058C63.75 23.3158 63.91 23.7258 64.05 24.1358C64.05 24.1358 64.05 24.2158 64.05 24.2558C62.9418 17.8824 59.7534 12.0557 54.9832 7.68624C50.2129 3.31675 44.1295 0.650624 37.6837 0.104517C31.2378 -0.44159 24.7925 1.16306 19.3552 4.66775C13.9178 8.17243 9.79464 13.3797 7.63 19.4758C7.11794 20.9633 6.72012 22.4877 6.44 24.0358V24.2758L0 24.3258L11.18 36.2558Z" fill="url(#paint0_linear_23_762)"/>
<path d="M59.2599 33.7258L54.9699 38.4758L48.2199 45.8758L55.0499 45.8258L54.9499 46.2058C54.8199 46.6658 54.6699 47.1358 54.5099 47.5958C53.2929 51.0088 51.1934 54.0384 48.425 56.3764C45.6567 58.7143 42.3185 60.2772 38.7499 60.9058C38.2799 61.0358 37.7499 61.1458 37.3199 61.2358C34.7167 61.7503 32.0552 61.9051 29.4099 61.6958H28.9599C28.6599 61.6958 28.3599 61.6458 28.0699 61.6058C27.6199 61.5558 27.1699 61.4858 26.7299 61.4158C26.2899 61.3458 25.6099 61.2058 25.0599 61.0758H24.8499C24.3199 60.9558 23.8499 60.8158 23.2899 60.6658L23.0299 60.5858C22.5299 60.4358 22.0299 60.2758 21.5399 60.0958L21.3099 60.0158C20.8099 59.8258 20.3099 59.6258 19.8199 59.4158H19.7199C19.2399 59.1958 18.7199 58.9758 18.2899 58.7358L18.1699 58.6758C17.7099 58.4458 17.2599 58.1958 16.8099 57.9358L16.5999 57.8058C16.1699 57.5558 15.7499 57.2858 15.3399 57.0058L15.1299 56.8658C14.7199 56.5858 14.3199 56.2958 13.9199 55.9858L13.7799 55.8758C13.3799 55.5558 12.9799 55.2358 12.5999 54.8758C12.2199 54.5458 11.8599 54.1958 11.5099 53.8758L11.3599 53.7358C11.0333 53.3958 10.6999 53.0458 10.3599 52.6858L10.1899 52.4958C9.88993 52.1358 9.59993 51.7758 9.31993 51.4058L9.18993 51.2258C8.90993 50.8358 8.63993 50.4458 8.38993 50.0458C8.36768 50.0231 8.35062 49.9958 8.33993 49.9658C8.08993 49.5658 7.85993 49.1658 7.63993 48.7558C7.61076 48.7159 7.58721 48.6722 7.56993 48.6258C7.34993 48.2158 7.15993 47.8058 6.96993 47.3858L6.87993 47.1658C6.69993 46.7558 6.53993 46.3458 6.39993 45.9158C6.39826 45.8825 6.39826 45.8491 6.39993 45.8158C7.52887 52.1787 10.7318 57.9891 15.5091 62.3409C20.2865 66.6926 26.3697 69.341 32.8101 69.8731C39.2504 70.4051 45.6857 68.7909 51.1125 65.2821C56.5392 61.7733 60.6522 56.5672 62.8099 50.4758C63.33 48.9926 63.7346 47.4714 64.0199 45.9258V45.6858L70.4599 45.6258L59.2599 33.7258Z" fill="url(#paint1_linear_23_762)"/>
<path d="M31.63 49.4758V47.6958H35.22V30.6058H25.76V52.3558C25.76 52.9658 26.0023 53.5508 26.4337 53.9822C26.865 54.4135 27.45 54.6558 28.06 54.6558H35.22V49.4758H31.63Z" fill="url(#paint2_linear_23_762)"/>
<path d="M35.22 47.6958H38.81V49.4758H35.22V54.6558H42.38C42.99 54.6558 43.575 54.4135 44.0063 53.9822C44.4377 53.5508 44.68 52.9658 44.68 52.3558V30.6058H35.22V47.6958Z" fill="url(#paint3_linear_23_762)"/>
<path d="M35.22 28.3158H34.33V25.6158H31.63V23.8258H34.33V21.1358H35.22V18.2358H28.06C27.45 18.2358 26.865 18.4782 26.4337 18.9095C26.0023 19.3408 25.76 19.9258 25.76 20.5358V30.6058H35.22V28.3158Z" fill="#C7D2DC"/>
<path d="M42.38 18.2358H35.22V21.1358H36.11V23.8258H38.81V25.6158H36.11V28.3158H35.22V30.6058H44.68V20.5358C44.68 20.2338 44.6205 19.9347 44.5049 19.6557C44.3893 19.3766 44.2199 19.1231 44.0063 18.9095C43.7927 18.6959 43.5392 18.5265 43.2601 18.4109C42.9811 18.2953 42.682 18.2358 42.38 18.2358Z" fill="#B8C1C9"/>
<path d="M40.98 18.2358C40.98 17.9167 40.9171 17.6007 40.795 17.3059C40.6729 17.0111 40.4939 16.7432 40.2682 16.5175C40.0426 16.2919 39.7747 16.1129 39.4799 15.9908C39.1851 15.8687 38.8691 15.8058 38.55 15.8058H35.22V18.2658L40.98 18.2358Z" fill="#CFD7DD"/>
<path d="M35.2199 15.7758H31.8899C31.5691 15.7732 31.251 15.8341 30.9539 15.955C30.6567 16.076 30.3865 16.2545 30.1587 16.4805C29.931 16.7064 29.7502 16.9752 29.6268 17.2713C29.5034 17.5674 29.4399 17.8851 29.4399 18.2059H35.1999L35.2199 15.7758Z" fill="#EDF1F5"/>
<path d="M35.2201 25.6158H34.3301V28.3158H35.2201V25.6158Z" fill="white"/>
<path d="M36.11 25.6158H35.22V28.3158H36.11V25.6158Z" fill="white"/>
<path d="M35.2201 21.1359H34.3301V23.8358H35.2201V21.1359Z" fill="white"/>
<path d="M36.11 21.1359H35.22V23.8358H36.11V21.1359Z" fill="white"/>
<path d="M34.3299 23.8258H31.6299V25.6158H34.3299V23.8258Z" fill="white"/>
<path d="M38.8099 23.8258H36.1099V25.6158H38.8099V23.8258Z" fill="white"/>
<path d="M36.11 23.8258H35.22V25.6158H36.11V23.8258Z" fill="white"/>
<path d="M35.2201 23.8258H34.3301V25.6158H35.2201V23.8258Z" fill="white"/>
<path d="M35.2199 47.6958H31.6299V49.4858H35.2199V47.6958Z" fill="white"/>
<path d="M38.81 47.6958H35.22V49.4858H38.81V47.6958Z" fill="white"/>
<defs>
<linearGradient id="paint0_linear_23_762" x1="32.025" y1="0" x2="32.025" y2="36.2558" gradientUnits="userSpaceOnUse">
<stop stop-color="#90E344"/>
<stop offset="1" stop-color="#6CB42A"/>
</linearGradient>
<linearGradient id="paint1_linear_23_762" x1="38.4293" y1="33.7258" x2="38.4293" y2="69.9725" gradientUnits="userSpaceOnUse">
<stop stop-color="#90E344"/>
<stop offset="1" stop-color="#6CB42A"/>
</linearGradient>
<linearGradient id="paint2_linear_23_762" x1="30.49" y1="54.6558" x2="30.49" y2="29.0505" gradientUnits="userSpaceOnUse">
<stop stop-color="#A8FABB"/>
<stop offset="1" stop-color="#568984"/>
</linearGradient>
<linearGradient id="paint3_linear_23_762" x1="39.95" y1="54.6558" x2="39.95" y2="29.0505" gradientUnits="userSpaceOnUse">
<stop stop-color="#77D28C"/>
<stop offset="1" stop-color="#345C58"/>
</linearGradient>
</defs>
</svg>
