<svg width="65" height="65" viewBox="0 0 65 65" fill="none" xmlns="http://www.w3.org/2000/svg">
<path d="M24.929 22.25L11.4189 14.1399L16.7589 4.78993C20.0489 -0.710071 26.0689 -0.960045 30.1089 5.90995C30.6889 6.90995 32.519 9.97993 32.519 9.97993L24.929 22.25Z" fill="#77BD0D"/>
<path d="M44.269 29.49L58.0591 21.85L63.479 31.14C66.609 36.74 63.809 42.14 55.8391 42.14C54.6791 42.14 51.109 42.14 51.109 42.14L44.269 29.49Z" fill="#77BD0D"/>
<path d="M33.6089 20.22L49.5389 20.9L56.8989 7.89999L52.2489 10.36L48.5989 3.85999C46.5989 1.10999 46.2089 0 36.4189 0H24.6089H24.6789C26.0224 0.249192 27.2914 0.801014 28.3899 1.61362C29.4884 2.42622 30.3875 3.47827 31.0189 4.69L38.1689 17.78L33.6089 20.22Z" fill="#92D205"/>
<path d="M41.6091 37.84L33.0591 51.3L40.6591 64.19L40.8491 58.93L48.3091 59.02C51.7091 58.62 52.8491 58.88 57.7491 50.4L63.6091 40.19H63.5391C62.678 41.2069 61.5859 42.0026 60.3541 42.5107C59.1222 43.0187 57.7866 43.2242 56.4591 43.11H41.6091V37.84Z" fill="#92D205"/>
<path d="M22.839 35.4299L15.459 21.2899L0.459024 21.4299L4.91901 24.2199L1.14903 30.6799C-2.53097 37.3399 3.24902 42.2499 9.70902 42.2499H12.609L18.459 32.7199L22.839 35.4299Z" fill="#77BD0D"/>
<path d="M29.2688 43.15L29.1188 59.2899H15.8788C14.4725 59.2298 13.1069 58.7996 11.92 58.0429C10.7331 57.2861 9.76682 56.2296 9.11884 54.9799C7.21884 51.17 1.04883 39.7 1.04883 39.7C1.90721 40.7826 3.00059 41.6558 4.24625 42.2535C5.49191 42.8512 6.85722 43.1578 8.23883 43.15C16.7888 43.36 29.2688 43.15 29.2688 43.15Z" fill="#92D205"/>
</svg>
