<svg width="89" height="63" viewBox="0 0 89 63" fill="none" xmlns="http://www.w3.org/2000/svg">
<path d="M67.0217 5.45H61.2617L62.5117 0H65.7817L67.0217 5.45Z" fill="#FF6A4D"/>
<path d="M73.5317 4.32997H57.4717C56.7552 4.32865 56.0454 4.46865 55.383 4.74195C54.7207 5.01525 54.1187 5.41648 53.6116 5.92269C53.1044 6.4289 52.7021 7.03015 52.4276 7.69203C52.153 8.35391 52.0117 9.06342 52.0117 9.77997V45.29C52.0104 46.0074 52.1507 46.7179 52.4247 47.381C52.6986 48.044 53.1007 48.6464 53.608 49.1537C54.1153 49.661 54.7177 50.0631 55.3807 50.337C56.0437 50.611 56.7544 50.7513 57.4717 50.75H80.2417C80.9583 50.75 81.6678 50.6087 82.3297 50.3342C82.9916 50.0596 83.5928 49.6573 84.099 49.1502C84.6052 48.643 85.0065 48.041 85.2798 47.3787C85.5531 46.7163 85.6931 46.0065 85.6917 45.29V31.62C85.6926 31.0809 85.6117 30.5448 85.4517 30.03L78.7417 8.17997C78.3994 7.06531 77.7086 6.08984 76.7709 5.39686C75.8331 4.70388 74.6978 4.32993 73.5317 4.32997Z" fill="#D9DAC1"/>
<path d="M25.2418 4.32996L9.30176 27.54L12.1118 50.75H48.2418C49.2319 50.7473 50.1807 50.3521 50.8799 49.651C51.5791 48.9499 51.9718 48.0001 51.9718 47.01V8.06996C51.9731 7.57929 51.8776 7.09318 51.6907 6.63948C51.5038 6.18578 51.2293 5.77341 50.8828 5.42598C50.5363 5.07856 50.1247 4.80292 49.6715 4.61484C49.2183 4.42677 48.7324 4.32995 48.2418 4.32996H25.2418Z" fill="#77BD0D"/>
<path d="M12.1118 50.75L2.87181 38.01C0.758928 35.0909 -0.241939 31.5131 0.0495794 27.9214C0.341098 24.3297 1.90583 20.9601 4.46181 18.42L14.2318 8.71996C17.061 5.90497 20.8908 4.32633 24.8818 4.32996H30.0218L21.7718 14.98C14.3627 24.5533 10.8444 36.5725 11.9218 48.63L12.1118 50.75Z" fill="#92D205"/>
<path d="M38.2417 51.52C38.2437 53.6466 37.6149 55.726 36.4349 57.4951C35.2548 59.2643 33.5766 60.6437 31.6125 61.4589C29.6483 62.274 27.4865 62.4883 25.4006 62.0747C23.3146 61.661 21.3982 60.638 19.8938 59.135C18.3894 57.6319 17.3646 55.7165 16.949 53.6309C16.5334 51.5454 16.7457 49.3834 17.559 47.4185C18.3724 45.4536 19.7502 43.7741 21.5183 42.5924C23.2863 41.4108 25.3651 40.78 27.4917 40.78C30.341 40.78 33.0738 41.9112 35.0896 43.9251C37.1053 45.9389 38.239 48.6707 38.2417 51.52Z" fill="#264196"/>
<path d="M27.532 57.29C26.3903 57.292 25.2738 56.9553 24.3236 56.3224C23.3734 55.6896 22.6323 54.7892 22.194 53.735C21.7558 52.6809 21.6401 51.5204 21.8616 50.4005C22.0831 49.2805 22.6318 48.2515 23.4384 47.4435C24.2449 46.6356 25.273 46.0851 26.3926 45.8616C27.5121 45.6382 28.6728 45.7518 29.7277 46.1883C30.7826 46.6247 31.6844 47.3642 32.3188 48.3133C32.9533 49.2624 33.2919 50.3784 33.2919 51.52C33.2893 53.0478 32.6819 54.5123 31.6026 55.5936C30.5232 56.6748 29.0597 57.2847 27.532 57.29Z" fill="#E1E2E1"/>
<path d="M79.3318 51.52C79.3338 53.6466 78.705 55.726 77.525 57.4951C76.3449 59.2643 74.6667 60.6437 72.7026 61.4589C70.7384 62.274 68.5766 62.4883 66.4907 62.0747C64.4047 61.661 62.4884 60.638 60.9839 59.135C59.4795 57.6319 58.4547 55.7165 58.0391 53.6309C57.6235 51.5454 57.8358 49.3834 58.6491 47.4185C59.4625 45.4536 60.8403 43.7741 62.6084 42.5924C64.3764 41.4108 66.4552 40.78 68.5818 40.78C71.4311 40.78 74.1639 41.9112 76.1796 43.9251C78.1954 45.9389 79.3291 48.6707 79.3318 51.52Z" fill="#264196"/>
<path d="M68.582 57.29C67.4408 57.29 66.3252 56.9516 65.3764 56.3176C64.4275 55.6836 63.6879 54.7824 63.2512 53.7281C62.8145 52.6738 62.7002 51.5136 62.9229 50.3943C63.1455 49.2751 63.695 48.2469 64.502 47.44C65.3089 46.633 66.3371 46.0835 67.4563 45.8609C68.5756 45.6382 69.7358 45.7525 70.7901 46.1892C71.8444 46.6259 72.7456 47.3655 73.3796 48.3144C74.0136 49.2632 74.352 50.3788 74.352 51.52C74.352 53.0503 73.7441 54.5179 72.662 55.6C71.5799 56.6821 70.1123 57.29 68.582 57.29Z" fill="#E1E2E1"/>
<path d="M16.3417 15.23C16.3437 15.5829 16.2407 15.9284 16.0459 16.2226C15.8511 16.5169 15.5732 16.7466 15.2475 16.8826C14.9219 17.0185 14.5632 17.0546 14.2169 16.9862C13.8707 16.9179 13.5526 16.7482 13.3031 16.4986C13.0536 16.2491 12.8838 15.931 12.8155 15.5848C12.7471 15.2386 12.7832 14.8798 12.9192 14.5542C13.0551 14.2285 13.2848 13.9506 13.5791 13.7558C13.8733 13.561 14.2188 13.458 14.5717 13.46C15.0411 13.46 15.4914 13.6465 15.8233 13.9784C16.1552 14.3103 16.3417 14.7606 16.3417 15.23Z" fill="#2BB673"/>
<path d="M14.5716 17.62C14.0989 17.62 13.6369 17.4798 13.2438 17.2172C12.8508 16.9546 12.5444 16.5813 12.3636 16.1446C12.1827 15.7079 12.1354 15.2273 12.2276 14.7637C12.3198 14.3001 12.5474 13.8742 12.8817 13.54C13.2159 13.2057 13.6418 12.9781 14.1054 12.8859C14.569 12.7937 15.0495 12.841 15.4862 13.0219C15.923 13.2028 16.2962 13.5091 16.5588 13.9022C16.8215 14.2952 16.9616 14.7573 16.9616 15.23C16.959 15.863 16.7064 16.4694 16.2587 16.917C15.8111 17.3647 15.2047 17.6173 14.5716 17.62ZM14.5716 14.08C14.3438 14.078 14.1205 14.1437 13.93 14.2689C13.7396 14.394 13.5907 14.573 13.5021 14.7829C13.4135 14.9929 13.3893 15.2244 13.4325 15.4481C13.4758 15.6719 13.5845 15.8777 13.7449 16.0395C13.9054 16.2014 14.1102 16.3119 14.3336 16.3571C14.5569 16.4023 14.7887 16.3801 14.9994 16.2934C15.2101 16.2066 15.3903 16.0592 15.5171 15.8699C15.6439 15.6806 15.7116 15.4578 15.7116 15.23C15.7117 14.9267 15.5919 14.6357 15.3784 14.4203C15.1648 14.2049 14.8749 14.0826 14.5716 14.08Z" fill="#1C75BC"/>
<path d="M21.7617 31.04C21.7617 31.3901 21.6579 31.7323 21.4634 32.0234C21.2689 32.3145 20.9924 32.5413 20.669 32.6753C20.3456 32.8093 19.9897 32.8443 19.6464 32.776C19.303 32.7077 18.9876 32.5391 18.7401 32.2916C18.4926 32.0441 18.324 31.7287 18.2557 31.3853C18.1874 31.042 18.2225 30.6861 18.3564 30.3627C18.4904 30.0392 18.7172 29.7628 19.0083 29.5683C19.2994 29.3738 19.6416 29.27 19.9917 29.27C20.4611 29.27 20.9113 29.4565 21.2433 29.7884C21.5752 30.1204 21.7617 30.5706 21.7617 31.04Z" fill="#2BB673"/>
<path d="M19.9918 33.43C19.5167 33.43 19.0523 33.289 18.6574 33.0248C18.2625 32.7607 17.9549 32.3853 17.7735 31.9461C17.5922 31.507 17.5452 31.0239 17.6387 30.5581C17.7321 30.0923 17.9616 29.6647 18.2983 29.3294C18.6349 28.9942 19.0635 28.7664 19.5297 28.6749C19.9959 28.5834 20.4788 28.6324 20.9172 28.8156C21.3555 28.9988 21.7297 29.3079 21.9922 29.7039C22.2547 30.0999 22.3937 30.5649 22.3918 31.04C22.3918 31.3547 22.3296 31.6663 22.2089 31.9569C22.0882 32.2476 21.9112 32.5115 21.6882 32.7335C21.4652 32.9556 21.2006 33.1314 20.9095 33.251C20.6183 33.3705 20.3065 33.4313 19.9918 33.43ZM19.9918 29.89C19.7643 29.89 19.542 29.9574 19.3529 30.0838C19.1637 30.2102 19.0163 30.3898 18.9293 30.5999C18.8423 30.8101 18.8195 31.0413 18.8639 31.2644C18.9082 31.4874 19.0178 31.6923 19.1786 31.8532C19.3394 32.014 19.5443 32.1235 19.7674 32.1679C19.9905 32.2123 20.2217 32.1895 20.4319 32.1025C20.642 32.0154 20.8216 31.868 20.948 31.6789C21.0743 31.4898 21.1418 31.2675 21.1418 31.04C21.1431 30.8877 21.1144 30.7366 21.0573 30.5953C21.0002 30.4541 20.9159 30.3255 20.8091 30.2168C20.7023 30.1082 20.5752 30.0216 20.4349 29.9621C20.2947 29.9026 20.1441 29.8713 19.9918 29.87V29.89Z" fill="#1C75BC"/>
<path d="M15.2191 15.2003L13.5444 15.7733L18.7568 31.0062L20.4315 30.4332L15.2191 15.2003Z" fill="#2BB673"/>
<path d="M55.752 22.7099V12.4299C55.752 11.2736 56.2113 10.1646 57.029 9.34696C57.8466 8.5293 58.9556 8.06995 60.1119 8.06995H71.5719C72.5047 8.07107 73.4127 8.37063 74.163 8.92482C74.9133 9.479 75.4666 10.2587 75.7419 11.1499L78.882 21.4299C79.0823 22.0821 79.1267 22.7723 79.0117 23.4448C78.8967 24.1173 78.6255 24.7534 78.2199 25.302C77.8143 25.8506 77.2856 26.2964 76.6763 26.6034C76.067 26.9105 75.3942 27.0703 74.7119 27.0699H60.1119C58.9556 27.0699 57.8466 26.6106 57.029 25.7929C56.2113 24.9753 55.752 23.8663 55.752 22.7099Z" fill="url(#paint0_linear_23_760)"/>
<path d="M85.3818 41.56V33.92C86.0767 33.92 86.7431 34.1961 87.2344 34.6874C87.7258 35.1788 88.0018 35.8452 88.0018 36.54V38.94C87.9992 39.6341 87.7223 40.299 87.2315 40.7897C86.7408 41.2805 86.0759 41.5574 85.3818 41.56Z" fill="#FFDE17"/>
<path d="M68.382 32.96H58.522V36.76H68.382V32.96Z" fill="#3FA4A9"/>
<defs>
<linearGradient id="paint0_linear_23_760" x1="67.413" y1="27.0699" x2="67.413" y2="6.84123" gradientUnits="userSpaceOnUse">
<stop stop-color="#77D28C"/>
<stop offset="1" stop-color="#345C58"/>
</linearGradient>
</defs>
</svg>
