<svg width="63" height="61" viewBox="0 0 63 61" fill="none" xmlns="http://www.w3.org/2000/svg">
<path d="M9.71016 14.0099L4.61015 4.91992H0.160156L6.60016 16.1999H9.71016H15.4402V14.0099H9.71016Z" fill="url(#paint0_linear_23_763)"/>
<path d="M54.0701 4.94C54.0701 7.66 44.4501 9.87 32.5901 9.87C20.7301 9.87 11.1001 7.66 11.1001 4.94C11.1001 2.22 20.7201 0 32.5901 0C44.4601 0 54.0701 2.21 54.0701 4.94Z" fill="url(#paint1_linear_23_763)"/>
<path d="M18.6202 43.65H17.4302L21.4302 53.32L29.9502 60.16V54.99C29.9502 51.9842 28.7568 49.1013 26.6323 46.975C24.5078 44.8486 21.626 43.6527 18.6202 43.65Z" fill="url(#paint2_linear_23_763)"/>
<path d="M55.8602 7.00999L55.7202 7.41999L55.9802 2.87H10.1802L17.4302 43.65H18.6202C21.6277 43.65 24.5121 44.8447 26.6388 46.9714C28.7654 49.0981 29.9602 51.9824 29.9602 54.99V60.16H48.2802C49.4707 60.162 50.6168 59.7083 51.4834 58.8919C52.3499 58.0756 52.8712 56.9585 52.9402 55.77L55.2902 14.82L62.2902 9.14999V7.00999H55.8602Z" fill="url(#paint3_linear_23_763)"/>
<g style="mix-blend-mode:multiply" opacity="0.43">
<path d="M35.28 54.85C35.2415 51.0359 33.8977 47.35 31.4723 44.406C29.0469 41.4621 25.6863 39.4377 21.95 38.67L16.53 12.16H50.12L47.66 54.85H35.28Z" fill="url(#paint4_linear_23_763)"/>
</g>
<path d="M55.86 7.00999H2.21001C1.62388 7.00999 1.06175 6.77715 0.647293 6.3627C0.232838 5.94824 0 5.38612 0 4.79999V4.13999C0 3.56978 0.226527 3.02291 0.62973 2.61971C1.03293 2.21651 1.57979 1.98999 2.15001 1.98999H56.28C56.8352 1.98998 57.3679 2.20986 57.7614 2.60153C58.1549 2.99319 58.3774 3.52477 58.38 4.07999V4.48999C58.3813 4.82129 58.317 5.14958 58.1909 5.45591C58.0647 5.76225 57.8791 6.04058 57.6449 6.27485C57.4106 6.50912 57.1323 6.69469 56.8259 6.82086C56.5196 6.94704 56.1913 7.01131 55.86 7.00999Z" fill="url(#paint5_linear_23_763)"/>
<path d="M28.2898 53.32C28.2938 54.6756 27.8954 56.002 27.1451 57.1311C26.3948 58.2602 25.3264 59.1413 24.0751 59.6628C22.8238 60.1843 21.4458 60.3228 20.1157 60.0608C18.7857 59.7988 17.5632 59.1479 16.6032 58.1908C15.6433 57.2336 14.9889 56.013 14.7229 54.6837C14.457 53.3544 14.5915 51.9761 15.1094 50.7233C15.6272 49.4704 16.5052 48.3994 17.6321 47.6458C18.759 46.8923 20.0842 46.49 21.4398 46.49C23.2531 46.49 24.9924 47.2089 26.2764 48.4892C27.5605 49.7695 28.2845 51.5067 28.2898 53.32Z" fill="#414042"/>
<path d="M21.4401 56.27C20.8448 56.2799 20.2599 56.1124 19.76 55.7889C19.2601 55.4653 18.8679 55.0003 18.6331 54.4531C18.3984 53.9059 18.3318 53.3012 18.4418 52.716C18.5519 52.1308 18.8336 51.5915 19.2511 51.167C19.6686 50.7424 20.203 50.4517 20.7862 50.3318C21.3695 50.2119 21.9753 50.2684 22.5263 50.4939C23.0774 50.7194 23.549 51.1038 23.8809 51.5982C24.2128 52.0926 24.3901 52.6745 24.3901 53.27C24.3902 54.057 24.0811 54.8126 23.5292 55.3738C22.9774 55.935 22.2271 56.2569 21.4401 56.27Z" fill="#A7A9AC"/>
<defs>
<linearGradient id="paint0_linear_23_763" x1="7.80016" y1="16.1999" x2="7.80016" y2="4.19045" gradientUnits="userSpaceOnUse">
<stop stop-color="#77D28C"/>
<stop offset="1" stop-color="#345C58"/>
</linearGradient>
<linearGradient id="paint1_linear_23_763" x1="32.5851" y1="0" x2="32.5851" y2="9.87" gradientUnits="userSpaceOnUse">
<stop stop-color="#90E344"/>
<stop offset="1" stop-color="#6CB42A"/>
</linearGradient>
<linearGradient id="paint2_linear_23_763" x1="23.6902" y1="60.16" x2="23.6902" y2="42.5823" gradientUnits="userSpaceOnUse">
<stop stop-color="#77D28C"/>
<stop offset="1" stop-color="#345C58"/>
</linearGradient>
<linearGradient id="paint3_linear_23_763" x1="36.2352" y1="2.87" x2="36.2352" y2="60.16" gradientUnits="userSpaceOnUse">
<stop stop-color="#90E344"/>
<stop offset="1" stop-color="#6CB42A"/>
</linearGradient>
<linearGradient id="paint4_linear_23_763" x1="33.325" y1="54.85" x2="33.325" y2="9.3993" gradientUnits="userSpaceOnUse">
<stop stop-color="#77D28C"/>
<stop offset="1" stop-color="#345C58"/>
</linearGradient>
<linearGradient id="paint5_linear_23_763" x1="16.5893" y1="2.15014" x2="16.9087" y2="7.91995" gradientUnits="userSpaceOnUse">
<stop stop-color="#E3FF9B"/>
<stop offset="1" stop-color="#9CFDBA"/>
</linearGradient>
</defs>
</svg>
