<svg width="658" height="296" viewBox="0 0 658 296" fill="none" xmlns="http://www.w3.org/2000/svg">
<path d="M401.447 200.182C365.827 232.923 321.516 232.857 276.439 214.706C250.059 204.088 222.156 185.66 206.989 161.911C186.463 130.225 193.629 102.968 209.45 68.8787C230.445 23.6039 264.44 -3.23579 314.445 2.30135C378.624 9.39374 419.142 56.0617 430.229 118.032C435.812 149.248 424.031 179.426 401.447 200.182Z" fill="url(#paint0_linear_23_178)"/>
<path d="M25.8226 294.455C25.8226 294.455 -13.4105 162.06 58.5887 121.958C130.588 81.8553 173.99 145.839 199.305 179.234C224.621 212.629 333.981 278.745 400.296 216.568C470.156 151.062 504.818 132.472 554.661 130.889C604.505 129.306 583.935 182.816 625.87 203.513C667.804 224.21 647.453 290.552 608.574 295.339L25.8226 294.455Z" fill="url(#paint1_linear_23_178)"/>
<path d="M488.169 280.402C488.169 280.402 487.323 294.037 484.685 294.232C484.332 294.257 471.299 294.257 471.299 294.257L454.66 294.161C454.66 294.161 454.769 290.154 459.632 289.308C464.495 288.462 472.637 285.042 475.582 278.619C478.684 271.866 488.169 280.402 488.169 280.402Z" fill="#163560"/>
<path d="M497.048 119.151C497.048 119.151 489.193 123.617 486.995 123.617C484.798 123.617 476.165 121.948 473.757 123.176C471.35 124.405 466.996 129.352 466.18 130.965C464.71 133.87 472.095 132.586 475.587 130.114C475.836 129.935 476.12 129.811 476.42 129.749C476.721 129.687 477.031 129.689 477.33 129.754C479.137 130.147 482.905 130.831 484.707 130.16C487.145 129.255 499.99 128.255 499.99 128.255L497.048 119.151Z" fill="#ED975D"/>
<path d="M556.81 58.3466C556.81 58.3466 548.668 116.193 535.194 121.375C528.542 123.931 499.139 129.734 490.442 130.309C490.442 130.309 488.311 128.582 488.83 121.55C488.83 121.55 519.635 110.245 524.011 104.098C530.524 94.9484 519.969 66.7181 528.142 58.1237C536.314 49.5292 550.069 45.8386 556.81 58.3466Z" fill="#ED7D2B"/>
<path d="M554.066 180.222C551.678 184.191 549.02 187.992 546.111 191.597C537.361 202.641 527.835 211.745 526.175 220.352C525.797 222.224 525.282 224.065 524.634 225.861C523.943 227.834 523.086 229.914 522.1 232.049C518.385 240.112 512.833 249.147 507.286 257.362C497.702 271.546 489.856 281.086 489.856 281.086C489.856 281.086 487.342 283.046 480.153 283.044C478.151 283.044 471.416 281.947 471.416 281.947C472.077 280.29 480.032 261.43 489.674 237.485L501.772 207.439C502.309 206.106 502.843 204.782 503.373 203.464C504.602 200.425 505.811 197.408 506.992 194.48C516.046 171.984 523.261 154.073 523.261 154.073C523.261 154.073 559.456 140.367 563.216 149.248C566.313 156.571 563.786 163.744 554.066 180.222Z" fill="#131F2D"/>
<path d="M526.446 241.449C526.446 241.449 537.944 248.836 536.836 251.234C536.687 251.554 530.334 262.927 530.334 262.927L522.138 277.403C522.138 277.403 518.69 275.354 520.321 270.695C521.953 266.037 522.937 257.271 518.76 251.564C514.359 245.566 526.446 241.449 526.446 241.449Z" fill="#163560"/>
<path d="M519.914 255.609C519.914 255.609 528.005 248.096 529.272 243.45C529.272 243.45 499.663 207.988 493.242 200.042C492.946 199.678 493.022 199.282 493.412 198.837C498.26 193.373 552.132 182.263 559.174 171.313C561.273 168.101 562.812 164.556 563.723 160.829C565.32 154.147 564.058 149.532 564.058 149.532L510.254 147.977C510.254 147.977 465.458 175.865 460.385 194.862C455.311 213.86 519.914 255.609 519.914 255.609Z" fill="#131F2D"/>
<path d="M493.412 198.834C498.26 193.37 552.132 182.261 559.175 171.311C561.273 168.098 562.812 164.553 563.723 160.827V154.02L540.855 150.426C540.855 150.426 534.371 170.371 515.175 177.851C497.183 184.855 493.769 197.287 493.412 198.834Z" fill="#111316"/>
<path d="M524.977 54.6991C535.873 57.5133 553.906 47.4319 553.906 47.4319C553.906 47.4319 546.899 42.7256 544.302 32.3859C544.17 31.8641 544.049 31.3322 543.947 30.7825C542.807 30.5292 540.653 30.0834 538.357 29.5996L530.042 37.0568C530.042 37.0568 530.233 40.147 531.272 45.4612C531.452 46.3883 531.661 47.3821 531.897 48.4426C529.227 50.0876 526.882 52.2082 524.977 54.6991Z" fill="#FFB27D"/>
<path d="M565.429 99.7963C563.87 120.757 565.935 152.635 564.162 158.154C562.641 162.916 545.242 160.087 538.301 158.496C535.731 157.906 532.619 157.067 529.404 156.072C520.438 153.286 510.669 149.334 509.62 146.393C509.581 146.282 509.549 146.169 509.523 146.054C509.435 145.647 509.442 145.224 509.544 144.82C509.893 143.323 511.239 141.7 511.396 137.981C511.574 133.837 511.548 128.956 511.703 123.705C511.703 123.115 511.721 122.472 511.784 121.882V121.666V121.332C511.936 115.478 512.243 109.323 512.597 103.218C512.823 99.386 513.084 95.589 513.385 91.9516C514.166 82.5643 515.22 74.2206 516.614 68.9343C518.895 60.3221 523.92 54.7191 528.494 50.6055L531.803 47.7685C535.496 48.574 539.859 48.0396 543.808 46.1702C548.083 44.1438 549.557 42.6899 550.302 43.237C560.173 50.8512 567.271 74.1725 565.429 99.7963Z" fill="url(#paint2_linear_23_178)"/>
<path d="M529.396 156.072C520.43 153.286 510.661 149.334 509.612 146.393C509.574 146.282 509.542 146.169 509.516 146.054C509.516 145.644 509.516 145.233 509.536 144.82C509.886 143.323 511.231 141.7 511.389 137.981C511.566 133.837 511.541 128.956 511.695 123.705C511.695 123.115 511.713 122.472 511.776 121.882V121.666V121.332L548.014 75.1731C548.014 75.1731 572.4 125.891 529.396 156.072Z" fill="url(#paint3_linear_23_178)"/>
<path d="M530.042 37.0565C530.042 37.0565 530.233 40.1468 531.272 45.461C539.381 42.8368 543.073 35.5063 544.302 32.3984C544.17 31.8766 544.049 31.3446 543.947 30.795C542.807 30.5417 540.653 30.0959 538.357 29.6121L530.042 37.0565Z" fill="#ED975D"/>
<path d="M528.95 41.7274C528.95 41.7274 546.656 38.7739 544.644 27.7832C542.632 16.7925 543.567 9.0061 532.179 10.4271C520.79 11.8481 519.366 16.443 519.143 20.2754C518.92 24.1078 524.298 42.2137 528.95 41.7274Z" fill="#FFB27D"/>
<path d="M502.74 132.629L458.542 133.572L445.976 94.918L444.417 95.4246L457.698 136.289L502.798 135.327L502.74 132.629Z" fill="#4A75CB"/>
<path d="M501.896 137.477C501.896 137.477 487.403 141.297 481.978 140.909C476.552 140.522 472.024 137.926 471.335 136.576C470.645 135.225 469.216 132.837 472.916 133.283C476.616 133.728 481.664 134.509 481.821 133.789C481.978 133.07 478.805 133.146 478.805 133.146C478.805 133.146 477.847 131.753 479.058 131.702C480.27 131.651 483.79 130.689 485.097 131.35C486.405 132.011 487.614 134.417 488.569 134.316C489.524 134.215 500.695 129.288 500.695 129.288L501.896 137.477Z" fill="#FFB27D"/>
<path d="M553.217 60.7199C553.217 60.7199 551.504 119.113 538.674 125.747C532.338 129.022 503.761 138.022 495.181 139.559C495.181 139.559 492.872 138.078 492.611 131.031C492.611 131.031 521.981 116.4 525.653 109.807C531.119 99.9966 517.514 73.1012 524.688 63.6607C531.862 54.2203 545.136 49.0327 553.217 60.7199Z" fill="url(#paint4_linear_23_178)"/>
<path d="M544.302 32.3858C544.302 32.3858 544.505 28.6141 542.178 26.4535C542.178 26.4535 542.989 22.6717 541.492 22.0486C539.994 21.4255 539.682 24.6044 538.998 24.1054C538.314 23.6064 535.255 21.238 533.948 17.7476C532.64 14.2571 520.654 18.4847 519.25 19.1129C517.846 19.741 513.363 17.436 512.491 15.5667C512.491 15.5667 514.985 13.5732 516.107 12.0762C517.23 10.5792 525.086 0.482646 536.061 3.35C547.036 6.21735 548.534 11.4556 547.91 15.9415C547.287 20.4275 548.797 30.8786 544.302 32.3858Z" fill="#131F2D"/>
<path d="M656.53 294.257H0.745029C0.333561 294.257 0 294.591 0 295.002V295.255C0 295.667 0.333561 296 0.745029 296H656.53C656.942 296 657.275 295.667 657.275 295.255V295.002C657.275 294.591 656.942 294.257 656.53 294.257Z" fill="#2E3552"/>
<path d="M209.173 250.18C209.173 250.18 202.096 241.928 208.738 236.687C208.738 236.687 213.588 233.751 217.544 233.989C217.544 233.989 211.938 243.382 213.742 244.316C215.547 245.251 219.231 233.399 219.231 233.399C219.231 233.399 230.27 232.33 233.82 234.038C233.82 234.038 224.386 241.756 226.372 242.214C228.359 242.673 238.551 235.099 238.551 235.099C238.551 235.099 248.825 236.847 248.277 243.111C247.73 249.375 244.19 251.308 242.634 251.143C241.078 250.978 231.991 247.503 231.778 248.777C231.565 250.051 237.059 254.215 240.901 254.41C240.901 254.41 233.658 262.395 228.843 260.089C224.028 257.784 223.618 254.134 220.617 252.764C217.617 251.394 215.042 251.396 216.294 252.794C217.546 254.193 222.964 255.55 224.68 258.582C226.395 261.614 227.936 263.664 222.956 262.914C217.977 262.164 209.88 258.524 209.526 254.352L209.173 250.18Z" fill="#82B378"/>
<path d="M243.239 243.278C243.239 243.278 215.336 242.204 209.173 250.18C209.173 250.18 207.81 254.261 203.618 257.975L202.965 259.748C202.965 259.748 207.8 254.651 209.53 254.342C209.53 254.352 206.824 244.469 243.239 243.278Z" fill="#82B378"/>
<path d="M203.618 257.974C203.618 257.974 197.628 262.402 197.212 270.315L198.299 270.411C198.299 270.411 200.213 262.232 203.669 259.033C207.126 255.834 203.618 257.974 203.618 257.974Z" fill="#82B378"/>
<path d="M184.43 239.803C184.43 239.803 195.689 233.501 190.433 224.949C190.433 224.949 186.232 219.698 181.729 218.346C181.729 218.346 184.131 231.099 181.729 231.401C179.326 231.702 180.076 216.996 180.076 216.996C180.076 216.996 168.219 211.296 163.567 211.745C163.567 211.745 170.916 224.199 168.518 223.903C166.121 223.607 157.875 211 157.875 211C157.875 211 145.711 208.751 143.765 215.952C141.819 223.153 144.966 226.753 146.768 227.204C148.57 227.654 160.125 227.505 159.826 229.005C159.527 230.504 151.717 232.905 147.369 231.555C147.369 231.555 152.183 243.407 158.476 242.807C164.768 242.207 166.732 238.306 170.639 237.994C174.547 237.683 177.393 238.754 175.442 239.795C173.49 240.836 166.886 240.14 163.734 242.817C160.581 245.494 158.03 247.146 163.883 248.347C169.737 249.547 180.246 248.797 182.347 244.294L184.43 239.803Z" fill="#A8D29F"/>
<path d="M149.307 218.196C149.307 218.196 180.826 228.399 184.43 239.803C184.43 239.803 184.28 244.904 187.433 250.755V253.005C187.433 253.005 184.138 245.353 182.329 244.304C182.329 244.304 189.384 234.4 149.307 218.196Z" fill="#82B378"/>
<path d="M187.433 250.756C187.433 250.756 192.293 258.134 189.521 267.116L188.272 266.779C188.272 266.779 189.486 256.888 186.941 251.911C184.397 246.933 187.433 250.756 187.433 250.756Z" fill="#82B378"/>
<path d="M202.341 231.112C202.341 231.112 187.501 222.804 194.425 211.532C194.425 211.532 199.967 204.609 205.902 202.829C205.902 202.829 202.736 219.64 205.902 220.035C209.067 220.43 208.078 201.038 208.078 201.038C208.078 201.038 223.709 193.522 229.844 194.115C229.844 194.115 220.148 210.531 223.313 210.134C226.479 209.736 237.363 193.125 237.363 193.125C237.363 193.125 253.388 190.159 255.96 199.652C258.533 209.146 254.379 213.893 252.005 214.485C249.63 215.078 234.395 214.881 234.79 216.859C235.186 218.837 245.474 222.001 251.212 220.22C251.212 220.22 244.876 235.846 236.569 235.053C228.263 234.261 225.688 229.121 220.544 228.721C215.399 228.321 211.639 229.709 214.208 231.094C216.778 232.48 225.488 231.548 229.644 235.079C233.8 238.61 237.162 240.786 229.446 242.366C221.73 243.947 207.878 242.961 205.119 237.027L202.341 231.112Z" fill="#A8D29F"/>
<path d="M248.64 202.631C248.64 202.631 207.08 216.081 202.341 231.112C202.341 231.112 202.539 237.837 198.383 245.55V248.516C198.383 248.516 202.737 238.43 205.111 237.044C205.111 237.044 195.811 223.992 248.64 202.631Z" fill="#82B378"/>
<path d="M198.383 245.55C198.383 245.55 191.974 255.274 195.623 267.116L197.273 266.673C197.273 266.673 195.672 253.633 199.024 247.072C202.377 240.512 198.383 245.55 198.383 245.55Z" fill="#82B378"/>
<path d="M201.84 292.791C209.549 292.791 216.943 289.729 222.394 284.28C227.846 278.831 230.908 271.441 230.908 263.735H172.771C172.771 271.441 175.833 278.831 181.285 284.28C186.736 289.729 194.13 292.791 201.84 292.791Z" fill="#657285"/>
<path d="M208.993 292.568C204.902 293.079 200.75 292.714 196.81 291.499C192.871 290.284 189.235 288.246 186.144 285.519C183.053 282.792 180.577 279.44 178.88 275.684C177.184 271.929 176.305 267.855 176.303 263.735H183.525C183.526 270.817 186.115 277.656 190.804 282.965C195.494 288.275 201.962 291.689 208.993 292.568Z" fill="#738196"/>
<path d="M231.311 294.27H172.37C172.37 293.319 172.748 292.407 173.42 291.735C174.093 291.062 175.005 290.684 175.956 290.683H227.723C228.194 290.683 228.661 290.776 229.096 290.956C229.531 291.137 229.927 291.401 230.26 291.734C230.593 292.067 230.858 292.462 231.038 292.897C231.218 293.333 231.311 293.799 231.311 294.27Z" fill="#657285"/>
<path d="M231.57 263.735H171.815V264.626H231.57V263.735Z" fill="#D86713"/>
<path d="M597.855 292.687C590.942 285.627 578.761 280.767 564.691 280.197V256.852H586.429C586.969 256.852 587.443 256.381 587.754 255.657C587.986 255.078 588.101 254.459 588.094 253.836V252.785C588.094 251.125 587.334 249.768 586.429 249.768H564.691V194.168C564.688 193.43 564.393 192.724 563.871 192.202C563.349 191.68 562.642 191.385 561.904 191.382C561.166 191.386 560.459 191.681 559.937 192.203C559.415 192.724 559.12 193.431 559.116 194.168V249.768H537.379C536.464 249.768 535.714 251.125 535.714 252.785V253.836C535.706 254.478 535.829 255.115 536.076 255.708C536.38 256.404 536.852 256.852 537.379 256.852H559.116V280.197C545.047 280.767 532.865 285.627 525.952 292.687C525.446 293.193 524.977 293.723 524.533 294.257H599.289C598.833 293.723 598.357 293.201 597.855 292.687Z" fill="#657285"/>
<path d="M564.691 280.298C554.874 281.207 546.446 285.944 541.552 292.687C541.18 293.193 540.83 293.723 540.501 294.257H533.585C533.914 293.723 534.262 293.201 534.634 292.687C540.085 285.164 549.958 280.138 561.242 280.138C562.4 280.138 563.556 280.194 564.691 280.298Z" fill="#748195"/>
<path d="M597.947 172.683H523.918C522.066 172.683 520.565 174.184 520.565 176.035V190.062C520.565 191.913 522.066 193.413 523.918 193.413H597.947C599.798 193.413 601.299 191.913 601.299 190.062V176.035C601.299 174.184 599.798 172.683 597.947 172.683Z" fill="#2B478B"/>
<path d="M188.158 65.9937C186.916 69.3296 184.765 73.2026 182.507 74.1651C179.947 75.2568 178.878 76.7969 178.878 76.7969L176.813 75.5988L174.337 74.1651C174.337 74.1651 174.395 73.889 174.517 73.4432C174.638 72.9974 174.821 72.3794 175.072 71.6954C175.294 71.3803 175.438 71.016 175.489 70.6335C175.54 70.2511 175.498 69.8619 175.366 69.4993C174.902 68.2784 174.993 66.3888 175.786 65.2388C176.579 64.0889 177.342 61.2544 177.813 61.338C178.969 61.5356 177.246 65.4313 177.74 66.1507C178.186 66.8042 178.754 66.5788 178.85 66.5307H178.868C182.109 65.1071 186.037 57.4321 187.775 58.4681C188.436 58.8405 188.687 64.5727 188.158 65.9937Z" fill="#FFB27D"/>
<path d="M176.952 70.6392L181.006 73.4888C181.075 73.537 181.152 73.5712 181.234 73.5894C181.315 73.6077 181.4 73.6098 181.482 73.5954C181.564 73.5811 181.643 73.5506 181.714 73.5058C181.784 73.461 181.845 73.4027 181.893 73.3343L192.283 58.5517C192.38 58.4131 192.418 58.2419 192.389 58.0754C192.36 57.9089 192.266 57.7605 192.129 57.6626L188.074 54.813C187.936 54.7165 187.765 54.6785 187.599 54.7075C187.432 54.7364 187.285 54.8299 187.187 54.9676L176.797 69.7527C176.749 69.821 176.715 69.8981 176.697 69.9797C176.678 70.0613 176.676 70.1456 176.691 70.228C176.705 70.3103 176.735 70.389 176.78 70.4596C176.825 70.5301 176.883 70.5912 176.952 70.6392Z" fill="#2B478B"/>
<path d="M180.672 73.2483L183.051 74.9201C183.156 74.9895 183.283 75.0156 183.407 74.9929C183.53 74.9702 183.64 74.9005 183.713 74.7985L194.283 59.7652C194.356 59.6604 194.386 59.5305 194.364 59.4042C194.342 59.2778 194.271 59.1654 194.166 59.0914L191.786 57.4196C191.681 57.3466 191.55 57.3181 191.424 57.3404C191.297 57.3627 191.184 57.4339 191.11 57.5387L180.54 72.572C180.504 72.625 180.479 72.6846 180.466 72.7473C180.454 72.8101 180.453 72.8747 180.466 72.9375C180.478 73.0004 180.502 73.0602 180.538 73.1135C180.573 73.1668 180.619 73.2127 180.672 73.2483Z" fill="#233862"/>
<path d="M118.741 49.4253C118.741 49.4253 139.386 85.4217 146.87 92.0455L174.337 71.5764C174.337 71.5764 178.32 72.7998 180.066 76.7969C180.066 76.7969 163.389 110.764 146.966 112.203C130.542 113.642 107.505 71.5054 107.505 71.5054L118.741 49.4253Z" fill="#233862"/>
<path d="M72.0144 294.257H60.0863C58.5836 293.442 57.2456 291.575 56.8224 288.794C56.2395 284.951 51.9315 282.856 50.9939 279.713C50.0563 276.569 54.8382 272.152 54.8382 272.152L55.6364 271.121L56.4676 270.054L64.3867 271.919C64.3867 271.919 64.5818 273.803 64.7009 276.205C64.7871 277.937 64.8327 279.938 64.7364 281.694C64.5033 285.883 65.9072 290.397 69.6323 291.213C72.392 291.813 72.2678 293.447 72.0144 294.257Z" fill="#233862"/>
<path d="M141.251 294.257H113.969C112.656 292.656 113.14 286.749 113.338 284.822C113.378 284.434 113.406 284.206 113.406 284.206C113.406 284.206 122.724 276.759 124.004 282.461C124.042 282.641 124.09 282.816 124.141 282.988C125.753 288.322 132.985 290.746 137.161 291.423C139.873 291.876 140.886 293.274 141.251 294.257Z" fill="#233862"/>
<path d="M136.051 142.037C136.051 142.037 134.637 159.679 132.975 180.885C130.714 209.693 127.998 245.079 127.729 251.781C127.265 263.433 125.398 282.043 125.398 282.043C125.398 282.043 120.976 286.466 112.127 284.601C112.127 284.601 104.238 258.02 101.99 229.889C101.955 229.428 101.922 228.962 101.886 228.498C99.7906 199.875 96.5317 139.59 96.5317 139.59L136.051 142.037Z" fill="url(#paint5_linear_23_178)"/>
<path d="M136.051 142.037C136.051 142.037 134.637 159.679 132.975 180.885L101.985 229.899C101.95 229.438 101.917 228.972 101.881 228.508C99.7857 199.885 96.5269 139.6 96.5269 139.6L136.051 142.037Z" fill="url(#paint6_linear_23_178)"/>
<path d="M129.592 144.131C129.592 144.131 104.093 208.034 87.3278 238.05C70.5621 268.066 65.3216 276.455 65.3216 276.455C65.3216 276.455 55.7173 272.615 54.843 269.996C54.843 269.996 61.2543 212.031 72.483 197.899C78.8183 189.915 86.2787 165.953 86.6284 157.574C86.9781 149.195 88.9091 132.611 88.9091 132.611L129.592 144.131Z" fill="url(#paint7_linear_23_178)"/>
<path d="M123.244 50.9882C113.28 54.1316 96.0327 45.6511 96.0327 45.6511C96.0327 45.6511 105.219 38.7589 104.737 24.4297L112.444 30.6355L117.677 34.8504C117.603 37.1393 117.404 39.4224 117.081 41.6895C116.932 42.8345 116.744 44.1136 116.506 45.5093C119.069 46.9071 121.353 48.7643 123.244 50.9882Z" fill="#FFB27D"/>
<path d="M117.684 34.8504C117.611 37.1393 117.412 39.4224 117.089 41.6895C111.291 40.6966 104.715 31.327 104.715 31.327C107.667 30.4759 110.252 30.3138 112.451 30.6355L117.684 34.8504Z" fill="#ED975D"/>
<path d="M120.73 34.6149C120.73 34.6149 104.273 37.348 102.738 27.0767C101.202 16.8054 98.0167 10.2398 108.45 8.06144C118.883 5.88306 121.528 9.49258 122.879 12.7956C124.23 16.0986 124.972 33.6371 120.73 34.6149Z" fill="#FFB27D"/>
<path d="M137.151 143.506C136.862 143.761 136.49 143.903 136.105 143.906C132.364 143.856 121.452 145.933 112.221 144.985C104.436 144.225 97.548 141.933 90.1484 138.617C89.1677 138.177 86.9047 136.971 86.9554 135.874C86.9884 134.673 87.11 132.928 87.2595 130.735C87.7816 123.1 88.6938 109.964 87.8044 94.8268C87.6447 92.0076 87.551 89.2086 87.551 86.4553C87.4749 65.938 91.5472 47.8726 99.7299 41.763C100.429 41.2564 104.72 43.3588 108.663 45.3092C112.304 47.1051 115.948 47.3027 119.39 46.6061L122.831 49.6457C127.022 53.5364 131.614 58.8228 133.608 66.8524C135.306 73.6915 136.302 86.0044 136.852 98.7682C137.106 104.554 137.303 110.39 137.359 115.927V116.124C137.407 116.674 137.407 117.272 137.407 117.821C137.592 132.044 137.402 143.306 137.151 143.506Z" fill="#2B478B"/>
<path d="M87.2595 130.735C87.7815 123.1 88.6938 109.964 87.8044 94.8268C87.6447 92.0076 87.551 89.2086 87.551 86.4553C90.9644 78.1901 93.7519 72.197 93.7519 72.197H102.343C102.343 72.197 108.637 115.202 87.2595 130.735Z" fill="#233862"/>
<path d="M84.6291 151.487L47.9858 146.267C45.6871 145.946 43.3548 146.548 41.4983 147.94C39.6418 149.333 38.412 151.403 38.0774 153.699L35.8145 169.573C35.4944 171.87 36.0966 174.201 37.4896 176.056C38.8826 177.911 40.9533 179.14 43.2496 179.475L79.8928 184.693C82.1916 185.013 84.5239 184.412 86.3804 183.019C88.2368 181.627 89.4666 179.556 89.8012 177.261L92.0642 161.389C92.3843 159.092 91.7821 156.761 90.389 154.906C88.996 153.051 86.9254 151.822 84.6291 151.487Z" fill="#233862"/>
<path d="M86.6945 156.219C86.177 154.917 85.3565 153.757 84.301 152.836C83.2455 151.914 81.9854 151.257 80.6253 150.92C80.3462 150.851 80.0636 150.796 79.7789 150.755L72.4654 149.712L72.9722 146.287C73.08 145.526 72.8811 144.753 72.4193 144.139C71.9574 143.524 71.2704 143.118 70.5091 143.009L68.606 142.736L60.9428 141.644L59.5617 141.449C58.8007 141.341 58.028 141.54 57.4132 142.001C56.7984 142.462 56.3918 143.148 56.2826 143.909L55.796 147.336L43.2015 145.54C40.8941 145.218 38.5532 145.822 36.6897 147.22C34.8262 148.618 33.5915 150.695 33.2551 153L30.9744 169.059C30.6522 171.365 31.2564 173.704 32.6548 175.566C34.0532 177.428 36.1322 178.661 38.4374 178.996L74.9995 184.206C75.6313 184.298 76.2714 184.318 76.9077 184.267C77.8932 184.193 78.8586 183.95 79.7611 183.548C81.1307 182.946 82.3245 182.007 83.2303 180.817C84.136 179.627 84.7238 178.226 84.9383 176.746L87.219 160.69C87.4394 159.179 87.2585 157.637 86.6945 156.219ZM58.0717 144.167C58.1143 143.883 58.2669 143.628 58.4964 143.456C58.7259 143.284 59.0139 143.209 59.2982 143.248L60.9251 143.478L66.9537 144.339L70.2481 144.808C70.3889 144.828 70.5244 144.875 70.6468 144.947C70.7693 145.02 70.8763 145.115 70.9617 145.229C71.0471 145.343 71.1093 145.472 71.1447 145.61C71.1801 145.747 71.188 145.891 71.1679 146.031L70.6814 149.456L57.5927 147.589L58.0717 144.167Z" fill="#2B478B"/>
<path d="M69.0748 136.401C69.0748 136.203 69.0976 136.003 69.1128 135.798C69.1888 134.785 71.1122 132.211 71.1122 132.211L66.2974 129.709L64.3867 132.865C61.5003 135.16 61.4471 135.2 61.9742 139.592C62.4303 143.392 59.9469 143.448 59.9976 146.178C60.0483 148.909 63.5631 147.561 63.5631 147.561C68.9962 145.011 69.4448 143.726 69.2775 141.143C69.7843 141.872 70.3697 142.298 70.8613 141.981C71.2921 141.7 70.4305 140.585 70.0555 138.007C69.9921 137.617 69.536 136.966 69.0748 136.401Z" fill="#FFB27D"/>
<path d="M66.219 134.174C68.3479 134.541 70.5119 134.661 72.6683 134.534C72.6683 134.534 81.852 106.164 83.0354 103.581C84.2188 100.997 110.318 70.325 110.318 70.325L99.4438 43.1357C99.4438 43.1357 71.2138 90.2622 68.3477 96.886C63.6114 107.829 61.9668 132.368 61.9668 132.368C63.2517 133.244 64.6966 133.857 66.219 134.174Z" fill="#2B478B"/>
<path d="M102.715 26.0862C102.715 26.0862 104.395 25.8051 104.142 23.4798C103.889 21.1545 103.871 18.1149 105.764 18.6823C107.657 19.2497 107.748 20.7619 108.526 19.8778C109.304 18.9938 109.306 15.2729 114.935 15.0196C120.563 14.7663 122.849 16.7192 125.467 15.5692C128.084 14.4192 128.216 10.4602 128.216 10.4602C128.216 10.4602 127.474 11.8736 126.348 12.3219C126.348 12.3219 130.715 6.35417 125.659 2.26084C120.604 -1.83248 115.449 0.847429 112.525 1.02474C106.078 1.41482 101.914 1.79984 99.8086 6.03501C97.7028 10.2702 98.5669 22.0132 102.715 26.0862Z" fill="#2B478B"/>
<mask id="mask0_23_178" style="mask-type:luminance" maskUnits="userSpaceOnUse" x="194" y="1" width="238" height="226">
<path d="M401.447 200.182C365.827 232.923 321.516 232.857 276.439 214.706C250.059 204.088 222.156 185.66 206.989 161.911C186.463 130.225 193.629 102.968 209.45 68.8787C230.445 23.6039 264.44 -3.23579 314.445 2.30135C378.624 9.39374 419.142 56.0617 430.229 118.032C435.812 149.248 424.031 179.426 401.447 200.182Z" fill="white"/>
</mask>
<g mask="url(#mask0_23_178)">
<path d="M335.8 137.698C335.8 137.698 319.146 134.346 316.364 134.612C313.581 134.878 303.947 139.205 303.835 139.998C303.724 140.79 304.205 141.421 305.893 141.492C307.58 141.563 313.105 140.704 312.77 141.383C312.436 142.062 296.552 145.621 296.458 148.835C296.364 152.05 305.272 157.794 312.677 158C320.081 158.205 334.386 149.243 335.628 149.101C346.165 147.903 335.8 137.698 335.8 137.698Z" fill="#ED975D"/>
<path d="M426.765 100.701C420.26 108.806 414.837 115.078 411.978 117.36C409.698 119.174 406.831 121.03 403.537 122.89C379.792 136.282 334.128 149.874 334.128 149.874L334.037 149.808C331.645 147.987 329.695 145.649 328.335 142.969C326.596 139.453 326.954 137.27 327.471 136.13C327.628 135.749 327.862 135.404 328.157 135.116C328.157 135.116 382.894 100.161 387.258 96.5186C389.741 94.4517 398.73 73.5367 406.051 55.8032C407.075 57.2876 408.066 58.7938 409.026 60.3221C416.707 72.5007 422.634 86.1105 426.765 100.701Z" fill="url(#paint8_linear_23_178)"/>
<path d="M427.14 162.607C426.802 163.585 426.44 164.557 426.055 165.523C424.277 170.051 422.139 174.429 419.662 178.616C418.192 181.108 416.605 183.532 414.903 185.888C411.056 191.213 406.681 196.135 401.844 200.579C401.87 200.212 401.897 199.847 401.923 199.483C401.963 198.92 402.004 198.358 402.042 197.803C402.131 196.572 402.216 195.363 402.295 194.176C402.331 193.715 402.361 193.259 402.394 192.806C402.604 189.87 402.802 187.086 402.987 184.475C403.04 183.715 403.094 182.988 403.144 182.263L403.19 181.622C403.223 181.197 403.251 180.776 403.279 180.356C403.306 179.935 403.334 179.596 403.36 179.239V179.127C403.388 178.753 403.413 178.383 403.438 178.015C403.484 177.397 403.527 176.794 403.567 176.204C403.593 175.835 403.618 175.475 403.646 175.115C403.683 174.558 403.721 174.015 403.76 173.486C403.76 173.36 403.778 173.233 403.788 173.104C403.806 172.851 403.823 172.597 403.841 172.344C403.841 172.22 403.859 172.091 403.866 171.977C403.868 171.962 403.868 171.946 403.866 171.931C403.902 171.458 403.932 170.994 403.965 170.546C403.967 170.522 403.967 170.498 403.965 170.475C403.988 170.148 404.011 169.826 404.034 169.515C404.034 169.408 404.049 169.307 404.054 169.206C404.069 169.025 404.082 168.848 404.092 168.674L404.122 168.251C404.191 167.273 404.257 166.379 404.312 165.578C404.312 165.464 404.328 165.35 404.335 165.242C404.343 165.133 404.353 165.016 404.358 164.905C404.373 164.694 404.388 164.489 404.401 164.294C404.503 162.878 404.573 161.847 404.617 161.242C404.617 161.181 404.617 161.123 404.617 161.067C404.617 161.052 404.617 161.034 404.617 161.017C404.617 160.999 404.617 160.91 404.617 160.867C404.632 160.697 404.637 160.614 404.637 160.614L427.14 162.607Z" fill="#6BB7BF"/>
<path d="M427.14 162.607C426.802 163.585 426.44 164.557 426.055 165.523C424.277 170.051 422.139 174.429 419.662 178.616C418.192 181.108 416.605 183.532 414.903 185.888C411.056 191.213 406.681 196.135 401.844 200.579C401.87 200.212 401.897 199.847 401.923 199.483C401.963 198.92 402.004 198.358 402.042 197.803C402.131 196.572 402.216 195.363 402.295 194.176C402.331 193.715 402.361 193.259 402.394 192.806C402.604 189.87 402.802 187.086 402.987 184.475C403.04 183.715 403.094 182.988 403.144 182.263L403.19 181.622C403.223 181.197 403.251 180.776 403.279 180.356C403.306 179.935 403.334 179.596 403.36 179.239V179.127C403.388 178.753 403.413 178.383 403.438 178.015C403.484 177.397 403.527 176.794 403.567 176.204C403.593 175.835 403.618 175.475 403.646 175.115C403.683 174.558 403.721 174.015 403.76 173.486C403.76 173.36 403.778 173.233 403.788 173.104C403.806 172.851 403.823 172.597 403.841 172.344C403.841 172.22 403.859 172.091 403.866 171.977C403.868 171.962 403.868 171.946 403.866 171.931C403.902 171.458 403.932 170.994 403.965 170.546C403.967 170.522 403.967 170.498 403.965 170.475C403.988 170.148 404.011 169.826 404.034 169.515C404.034 169.408 404.049 169.307 404.054 169.206C404.069 169.025 404.082 168.848 404.092 168.674L404.122 168.251C404.191 167.273 404.257 166.379 404.312 165.578C404.312 165.464 404.328 165.35 404.335 165.242C404.343 165.133 404.353 165.016 404.358 164.905C404.373 164.694 404.388 164.489 404.401 164.294C404.503 162.878 404.573 161.847 404.617 161.242C404.617 161.181 404.617 161.123 404.617 161.067C404.617 161.052 404.617 161.034 404.617 161.017C404.617 160.999 404.617 160.91 404.617 160.867C404.632 160.697 404.637 160.614 404.637 160.614L427.14 162.607Z" fill="#599DAD"/>
<path d="M430.753 118.049C433.446 132.963 432.2 148.321 427.14 162.607C426.802 163.585 426.44 164.557 426.055 165.523C424.277 170.051 422.139 174.429 419.662 178.616C418.192 181.108 416.605 183.532 414.903 185.888C410.022 185.184 406.053 184.622 403.605 184.546C403.399 184.539 403.193 184.511 402.992 184.462C402.449 184.331 401.949 184.06 401.543 183.677C401.059 183.256 401.517 160.725 403.002 132.346C403.045 131.251 403.088 130.048 403.23 128.961V128.559C403.325 126.686 403.424 124.795 403.527 122.887C403.59 121.785 403.651 120.681 403.719 119.572C404.178 112.003 404.733 104.26 405.364 96.539C405.425 95.7994 405.484 95.0606 405.541 94.3227C406.517 82.4404 407.663 70.7658 409.016 60.3096C416.697 72.4984 422.624 86.1082 426.755 100.698C428.363 106.343 429.696 112.127 430.753 118.049Z" fill="url(#paint9_linear_23_178)"/>
<path d="M226.413 159.976C226.142 152.03 225.739 142.569 225.204 132.348C225.161 131.254 225.113 130.051 224.976 128.964L224.958 128.561C224.915 127.657 224.872 126.745 224.824 125.831C224.799 125.314 224.772 124.796 224.743 124.278C224.662 122.719 224.572 121.151 224.474 119.574C224.016 112.006 223.443 104.262 222.832 96.5417C222.766 95.802 222.708 95.0624 222.65 94.3253C221.748 83.3169 220.698 72.4832 219.472 62.64L219.449 62.4754C219.297 61.2392 219.135 60.0133 218.975 58.8076C218.656 56.3835 218.321 54.0253 217.962 51.7532C217.487 52.5283 217.021 53.3101 216.563 54.0987C213.848 58.7375 211.314 63.5983 208.96 68.6812C204.163 79.0158 200.091 90.199 196.695 101.972L196.629 102.198C195.55 105.924 194.773 109.73 194.306 113.581C194.24 114.113 194.181 114.648 194.128 115.179C192.494 132.115 197.321 147.964 206.49 162.123C206.802 162.612 207.123 163.099 207.453 163.585C208.099 164.545 208.768 165.503 209.457 166.447C209.94 167.123 210.436 167.788 210.945 168.443C211.048 168.583 211.157 168.722 211.266 168.861C214.852 173.476 218.781 177.814 223.02 181.838C223.719 182.505 224.427 183.165 225.143 183.819C225.318 183.981 225.501 184.143 225.678 184.305C226.032 184.151 226.358 183.94 226.643 183.679C226.973 183.408 226.899 174.092 226.413 159.976Z" fill="#2A4E96"/>
<path d="M226.413 159.976C213.649 146.604 203.008 130.19 194.326 113.579C194.794 109.728 195.571 105.921 196.65 102.195L196.716 101.97C200.119 90.1965 204.184 79.0133 208.981 68.6787C216.819 79.8746 222.31 90.1788 222.65 94.3278C222.708 95.0649 222.766 95.8046 222.832 96.5442C223.443 104.265 224.016 111.996 224.474 119.577C224.571 121.156 224.66 122.724 224.743 124.281C224.77 124.799 224.797 125.317 224.824 125.833C224.872 126.748 224.915 127.66 224.958 128.564L224.976 128.967C225.113 130.053 225.161 131.246 225.204 132.351C225.739 142.569 226.142 152.03 226.413 159.976Z" fill="#1E3D70"/>
<path d="M284.388 138.696C284.388 138.696 301.367 138.713 304.05 139.524C306.734 140.334 315.312 146.49 315.261 147.287C315.211 148.085 314.618 148.607 312.95 148.341C311.283 148.075 306.037 146.14 306.23 146.875C306.422 147.609 321.285 154.241 320.737 157.412C320.19 160.583 310.325 164.443 303.029 163.18C295.733 161.916 283.489 150.294 282.298 149.909C272.204 146.644 284.388 138.696 284.388 138.696Z" fill="#FFB27D"/>
<path d="M287.465 144.494C286.185 146.635 284.516 148.519 282.543 150.046C282.114 150.387 281.666 150.704 281.2 150.994C281.2 150.994 248.51 138.759 224.814 125.831C216.983 121.558 210.131 117.206 205.77 113.201C203.801 111.39 200.603 107.347 196.705 101.967C200.109 90.194 204.173 79.0109 208.97 68.6762C211.324 63.6102 213.858 58.7494 216.573 54.0938C217.518 56.9104 218.491 59.7854 219.469 62.635C224.659 77.7722 229.981 92.2711 231.886 94.0923C235.999 98.0261 288.187 136.667 288.187 136.667C288.187 136.667 288.861 137.32 289.046 138.726C289.208 140.005 288.975 141.903 287.465 144.494Z" fill="#2A4E96"/>
<path d="M351.75 24.4296H262.62V105.237H351.75V24.4296Z" fill="white"/>
<path d="M351.75 19.5814H262.62V24.427H351.75V19.5814Z" fill="#739AF0"/>
<path d="M265.61 21.0355C265.419 21.0355 265.231 21.0924 265.071 21.199C264.912 21.3056 264.787 21.4571 264.714 21.6344C264.64 21.8117 264.621 22.0067 264.659 22.1949C264.696 22.3831 264.788 22.556 264.924 22.6917C265.06 22.8273 265.233 22.9197 265.421 22.9572C265.609 22.9946 265.805 22.9754 265.982 22.902C266.159 22.8285 266.311 22.7042 266.417 22.5446C266.524 22.3851 266.581 22.1975 266.581 22.0057C266.581 21.8782 266.556 21.7519 266.508 21.634C266.459 21.5162 266.388 21.4091 266.297 21.3189C266.207 21.2288 266.1 21.1573 265.982 21.1087C265.864 21.0601 265.738 21.0352 265.61 21.0355Z" fill="#DDEBFD"/>
<path d="M269.409 21.0355C269.217 21.0355 269.029 21.0924 268.87 21.199C268.71 21.3056 268.586 21.4571 268.512 21.6344C268.439 21.8117 268.42 22.0067 268.457 22.1949C268.495 22.3831 268.587 22.556 268.723 22.6917C268.858 22.8273 269.031 22.9197 269.22 22.9572C269.408 22.9946 269.603 22.9754 269.78 22.902C269.958 22.8285 270.109 22.7042 270.216 22.5446C270.323 22.3851 270.38 22.1975 270.38 22.0057C270.38 21.8782 270.355 21.7519 270.306 21.634C270.258 21.5162 270.186 21.4091 270.096 21.3189C270.006 21.2288 269.899 21.1573 269.781 21.1087C269.663 21.0601 269.537 21.0352 269.409 21.0355Z" fill="#DDEBFD"/>
<path d="M273.233 21.0355C273.041 21.0355 272.853 21.0924 272.694 21.199C272.534 21.3056 272.41 21.4571 272.336 21.6344C272.263 21.8117 272.243 22.0067 272.281 22.1949C272.318 22.3831 272.411 22.556 272.546 22.6916C272.682 22.8273 272.855 22.9197 273.043 22.9572C273.232 22.9946 273.427 22.9754 273.604 22.902C273.782 22.8285 273.933 22.7042 274.04 22.5446C274.146 22.3851 274.203 22.1975 274.203 22.0057C274.203 21.7484 274.101 21.5016 273.919 21.3197C273.737 21.1377 273.49 21.0355 273.233 21.0355Z" fill="#DDEBFD"/>
<path d="M289.385 34.9567H323.436C323.864 34.9554 324.275 34.7847 324.578 34.4819C324.881 34.1791 325.052 33.7688 325.053 33.3407C325.052 32.9125 324.881 32.5022 324.578 32.1994C324.275 31.8966 323.864 31.7259 323.436 31.7246H289.385C288.957 31.7259 288.547 31.8967 288.244 32.1996C287.942 32.5024 287.772 32.9127 287.771 33.3407C287.772 33.7686 287.942 34.1789 288.244 34.4817C288.547 34.7846 288.957 34.9554 289.385 34.9567Z" fill="#A8C3F7"/>
<path d="M281.629 40.5016H331.198C331.416 40.5102 331.633 40.4748 331.837 40.3975C332.04 40.3203 332.226 40.2027 332.383 40.0519C332.54 39.9011 332.665 39.7202 332.75 39.52C332.835 39.3198 332.879 39.1044 332.879 38.8868C332.879 38.6692 332.835 38.4538 332.75 38.2536C332.665 38.0534 332.54 37.8725 332.383 37.7217C332.226 37.5709 332.04 37.4533 331.837 37.3761C331.633 37.2988 331.416 37.2634 331.198 37.272H281.631C281.414 37.2634 281.197 37.2988 280.993 37.3761C280.79 37.4533 280.604 37.5709 280.447 37.7217C280.29 37.8725 280.165 38.0534 280.08 38.2536C279.994 38.4538 279.95 38.6692 279.95 38.8868C279.95 39.1044 279.994 39.3198 280.08 39.52C280.165 39.7202 280.29 39.9011 280.447 40.0519C280.604 40.2027 280.79 40.3203 280.993 40.3975C281.197 40.4748 281.414 40.5102 281.631 40.5016H281.629Z" fill="#A8C3F7"/>
<path d="M277.437 55.0967H337.179C337.339 55.1041 337.499 55.0789 337.649 55.0228C337.799 54.9666 337.937 54.8806 338.053 54.7699C338.169 54.6592 338.261 54.5261 338.324 54.3788C338.387 54.2314 338.419 54.0728 338.419 53.9125C338.419 53.7522 338.387 53.5936 338.324 53.4462C338.261 53.2989 338.169 53.1658 338.053 53.0551C337.937 52.9444 337.799 52.8584 337.649 52.8022C337.499 52.7461 337.339 52.7209 337.179 52.7283H277.437C277.277 52.7209 277.117 52.7461 276.967 52.8022C276.816 52.8584 276.679 52.9444 276.563 53.0551C276.447 53.1658 276.355 53.2989 276.292 53.4462C276.229 53.5936 276.196 53.7522 276.196 53.9125C276.196 54.0728 276.229 54.2314 276.292 54.3788C276.355 54.5261 276.447 54.6592 276.563 54.7699C276.679 54.8806 276.816 54.9666 276.967 55.0228C277.117 55.0789 277.277 55.1041 277.437 55.0967Z" fill="#A8C3F7"/>
<path d="M337.179 58.1943H277.437C276.782 58.1943 276.251 58.7245 276.251 59.3785C276.251 60.0325 276.782 60.5627 277.437 60.5627H337.179C337.834 60.5627 338.365 60.0325 338.365 59.3785C338.365 58.7245 337.834 58.1943 337.179 58.1943Z" fill="#A8C3F7"/>
<path d="M337.179 63.6531H277.437C277.277 63.6457 277.117 63.6709 276.967 63.727C276.816 63.7832 276.679 63.8692 276.563 63.9799C276.447 64.0906 276.355 64.2236 276.292 64.371C276.229 64.5184 276.196 64.677 276.196 64.8373C276.196 64.9976 276.229 65.1562 276.292 65.3036C276.355 65.4509 276.447 65.584 276.563 65.6947C276.679 65.8054 276.816 65.8914 276.967 65.9476C277.117 66.0037 277.277 66.0289 277.437 66.0215H337.179C337.339 66.0289 337.499 66.0037 337.649 65.9476C337.799 65.8914 337.937 65.8054 338.053 65.6947C338.169 65.584 338.261 65.4509 338.324 65.3036C338.387 65.1562 338.419 64.9976 338.419 64.8373C338.419 64.677 338.387 64.5184 338.324 64.371C338.261 64.2236 338.169 64.0906 338.053 63.9799C337.937 63.8692 337.799 63.7832 337.649 63.727C337.499 63.6709 337.339 63.6457 337.179 63.6531Z" fill="#A8C3F7"/>
<path d="M283.435 83.5322H277.437C277.122 83.5322 276.821 83.6571 276.598 83.8794C276.376 84.1018 276.251 84.4033 276.251 84.7177C276.251 85.0321 276.376 85.3336 276.598 85.5559C276.821 85.7782 277.122 85.9031 277.437 85.9031H283.435C283.75 85.9031 284.051 85.7782 284.274 85.5559C284.496 85.3336 284.621 85.0321 284.621 84.7177C284.621 84.4033 284.496 84.1018 284.274 83.8794C284.051 83.6571 283.75 83.5322 283.435 83.5322Z" fill="#A8C3F7"/>
<path d="M293.458 83.5322H287.457C287.142 83.5322 286.841 83.6571 286.618 83.8794C286.396 84.1018 286.271 84.4033 286.271 84.7177C286.271 85.0321 286.396 85.3336 286.618 85.5559C286.841 85.7782 287.142 85.9031 287.457 85.9031H293.458C293.772 85.9031 294.074 85.7782 294.296 85.5559C294.519 85.3336 294.644 85.0321 294.644 84.7177C294.644 84.4033 294.519 84.1018 294.296 83.8794C294.074 83.6571 293.772 83.5322 293.458 83.5322Z" fill="#A8C3F7"/>
<path d="M327.156 83.5322H321.158C320.844 83.5322 320.542 83.6571 320.32 83.8794C320.097 84.1018 319.972 84.4033 319.972 84.7177C319.972 85.0321 320.097 85.3336 320.32 85.5559C320.542 85.7782 320.844 85.9031 321.158 85.9031H327.156C327.471 85.9031 327.773 85.7782 327.995 85.5559C328.217 85.3336 328.342 85.0321 328.342 84.7177C328.342 84.4033 328.217 84.1018 327.995 83.8794C327.773 83.6571 327.471 83.5322 327.156 83.5322Z" fill="#A8C3F7"/>
<path d="M337.179 83.5322H331.181C330.866 83.5322 330.564 83.6571 330.342 83.8794C330.12 84.1018 329.995 84.4033 329.995 84.7177C329.995 85.0321 330.12 85.3336 330.342 85.5559C330.564 85.7782 330.866 85.9031 331.181 85.9031H337.179C337.493 85.9031 337.795 85.7782 338.017 85.5559C338.24 85.3336 338.365 85.0321 338.365 84.7177C338.365 84.4033 338.24 84.1018 338.017 83.8794C337.795 83.6571 337.493 83.5322 337.179 83.5322Z" fill="#A8C3F7"/>
<path d="M285.098 87.3442C283.848 87.3437 282.626 87.7137 281.587 88.4072C280.548 89.1008 279.738 90.0869 279.259 91.2407C278.781 92.3945 278.655 93.6643 278.899 94.8894C279.142 96.1145 279.744 97.2399 280.627 98.1233C281.51 99.0067 282.636 99.6084 283.862 99.8522C285.087 100.096 286.358 99.9712 287.512 99.4933C288.667 99.0154 289.654 98.2061 290.348 97.1676C291.042 96.129 291.413 94.9081 291.413 93.659C291.408 91.9861 290.741 90.383 289.558 89.1998C288.375 88.0167 286.771 87.3496 285.098 87.3442ZM285.098 99.6571C283.911 99.6576 282.75 99.3063 281.763 98.6475C280.776 97.9887 280.006 97.0521 279.552 95.9561C279.097 94.8602 278.978 93.6541 279.209 92.4904C279.441 91.3267 280.012 90.2577 280.851 89.4186C281.69 88.5795 282.759 88.0079 283.923 87.7763C285.088 87.5446 286.294 87.6633 287.391 88.1172C288.488 88.5711 289.425 89.3399 290.084 90.3263C290.744 91.3128 291.096 92.4726 291.096 93.659C291.095 95.249 290.462 96.7734 289.338 97.8979C288.213 99.0224 286.688 99.6551 285.098 99.6571Z" fill="#A8C3F7"/>
<path d="M285.098 88.5703C284.091 88.5703 283.106 88.8688 282.269 89.4279C281.432 89.9871 280.779 90.7819 280.394 91.7117C280.009 92.6416 279.908 93.6648 280.104 94.6519C280.301 95.639 280.786 96.5457 281.498 97.2574C282.21 97.9691 283.117 98.4538 284.104 98.6501C285.092 98.8465 286.116 98.7457 287.046 98.3605C287.976 97.9754 288.771 97.3231 289.331 96.4863C289.89 95.6494 290.189 94.6656 290.189 93.6591C290.187 92.3101 289.65 91.0169 288.695 90.063C287.741 89.1091 286.447 88.5723 285.098 88.5703ZM285.098 98.4287C284.154 98.4287 283.231 98.149 282.447 97.6249C281.662 97.1008 281.05 96.3559 280.689 95.4844C280.328 94.6128 280.233 93.6538 280.418 92.7286C280.602 91.8034 281.056 90.9535 281.723 90.2865C282.391 89.6194 283.241 89.1652 284.167 88.9811C285.092 88.7971 286.052 88.8915 286.924 89.2525C287.796 89.6135 288.541 90.2249 289.065 91.0092C289.59 91.7936 289.869 92.7158 289.869 93.6591C289.867 94.9235 289.364 96.1355 288.47 97.0295C287.575 97.9236 286.363 98.4267 285.098 98.4287Z" fill="#A8C3F7"/>
<path d="M283.367 95.7411C282.688 95.6853 282.338 95.3662 282.323 94.7937C282.316 94.5807 282.355 94.3687 282.437 94.172C282.519 93.9754 282.643 93.7986 282.799 93.6539C282.931 94.3125 283.281 94.8697 283.666 94.9913C283.774 95.0234 283.89 95.0204 283.997 94.9826C284.103 94.9448 284.195 94.8743 284.259 94.7811C284.44 94.5471 284.593 94.2919 284.713 94.0212C284.78 94.0893 284.87 94.1291 284.966 94.1326C285.202 94.1326 285.435 93.9578 285.645 93.5931C285.701 93.4914 285.751 93.3865 285.795 93.279C285.809 93.2954 285.826 93.3091 285.845 93.3195C285.882 93.34 285.924 93.3478 285.966 93.3419C286.008 93.3359 286.046 93.3165 286.076 93.2866C286.238 93.1157 286.371 92.9188 286.469 92.704C286.491 92.7541 286.528 92.7963 286.575 92.8256C286.623 92.8506 286.678 92.8579 286.731 92.8463C286.784 92.8347 286.831 92.805 286.864 92.7623C286.892 92.7415 286.911 92.7114 286.919 92.6774C286.926 92.6434 286.921 92.6079 286.905 92.5774C286.869 92.514 286.758 92.4684 286.593 92.4406C286.768 92.0378 286.889 91.6148 286.826 91.4603C286.814 91.4288 286.793 91.402 286.764 91.3842C286.736 91.3663 286.702 91.3583 286.669 91.3615C286.552 91.3742 286.469 91.4907 286.415 91.7187C286.369 91.9461 286.358 92.1795 286.385 92.4102C286.265 92.4102 286.133 92.4102 285.99 92.4102C285.99 92.3262 285.969 92.2435 285.929 92.1696C285.915 92.1399 285.892 92.1156 285.863 92.1004C285.835 92.0853 285.801 92.0802 285.769 92.086C285.678 92.1062 285.645 92.2151 285.632 92.3063C285.632 92.3418 285.632 92.3823 285.632 92.4304C285.195 92.4654 284.762 92.5391 284.337 92.6508C283.846 92.7719 283.381 92.9804 282.964 93.2663C282.964 93.0662 282.964 92.8205 283.111 92.7319C283.258 92.6432 283.575 92.7572 283.674 92.8155L283.775 92.6432C283.755 92.6432 283.306 92.3747 283.015 92.5622C282.83 92.6812 282.761 92.9294 282.776 93.3043C282.776 93.3423 282.776 93.3778 282.776 93.4132C282.572 93.579 282.408 93.7893 282.296 94.0281C282.185 94.2669 282.13 94.5279 282.135 94.7912C282.153 95.4624 282.589 95.8677 283.362 95.931C283.979 95.9523 284.595 95.8561 285.176 95.6474C286.646 95.1712 288.012 94.1554 288.286 93.2334C287.88 94.3961 285.019 95.8779 283.367 95.7411ZM286.644 91.6452C286.633 91.7153 286.617 91.7847 286.598 91.8529C286.607 91.7825 286.622 91.713 286.644 91.6452ZM285.98 92.6179C286.096 92.6179 286.203 92.6179 286.296 92.6179C286.21 92.8159 286.09 92.9976 285.942 93.1549C285.942 93.1549 285.914 93.1372 285.883 93.0434C285.928 92.9048 285.961 92.7624 285.98 92.6179ZM284.913 92.7293C285.166 92.6863 285.399 92.6559 285.62 92.6382C285.625 92.7739 285.644 92.9088 285.675 93.0409C285.623 93.202 285.554 93.3573 285.47 93.5044C285.308 93.7907 285.126 93.9528 284.963 93.9452C284.927 93.9414 284.891 93.9285 284.861 93.9077C284.83 93.8869 284.806 93.8589 284.789 93.8261C284.968 93.4057 285.042 92.9801 284.913 92.7293ZM284.718 92.7901C284.814 92.9193 284.791 93.203 284.692 93.5323C284.638 93.2842 284.647 93.0264 284.718 92.7825V92.7901ZM283.565 93.1448C283.865 93.0055 284.178 92.896 284.5 92.818C284.448 93.0687 284.448 93.3272 284.5 93.5779C284.518 93.6649 284.545 93.7498 284.581 93.8312C284.461 94.1241 284.301 94.3987 284.104 94.6468C284.066 94.7094 284.008 94.7577 283.939 94.7842C283.87 94.8107 283.795 94.8141 283.724 94.7937C283.428 94.7025 283.081 94.1909 282.964 93.4943C283.147 93.3548 283.346 93.2375 283.557 93.1448H283.565Z" fill="#A8C3F7"/>
<path d="M328.996 87.5112C327.716 87.5112 326.465 87.8906 325.4 88.6015C324.336 89.3124 323.506 90.3227 323.017 91.5048C322.527 92.6869 322.399 93.9877 322.648 95.2426C322.898 96.4975 323.514 97.6502 324.42 98.555C325.325 99.4597 326.478 100.076 327.733 100.325C328.989 100.575 330.29 100.447 331.473 99.9573C332.655 99.4677 333.666 98.6385 334.377 97.5746C335.089 96.5108 335.468 95.26 335.468 93.9805C335.467 92.2652 334.785 90.6205 333.571 89.4075C332.358 88.1946 330.712 87.5126 328.996 87.5112ZM328.996 100.123C327.781 100.123 326.593 99.7628 325.582 99.0878C324.571 98.4129 323.784 97.4535 323.319 96.3311C322.853 95.2087 322.732 93.9737 322.969 92.7822C323.206 91.5906 323.791 90.4961 324.651 89.6371C325.51 88.778 326.605 88.193 327.797 87.956C328.989 87.719 330.225 87.8406 331.348 88.3056C332.471 88.7705 333.43 89.5578 334.106 90.5679C334.781 91.578 335.141 92.7656 335.141 93.9805C335.141 95.6099 334.493 97.1724 333.341 98.325C332.189 99.4776 330.626 100.126 328.996 100.128V100.123Z" fill="#A8C3F7"/>
<path d="M328.996 88.7676C327.965 88.7676 326.956 89.0733 326.099 89.6461C325.241 90.2189 324.573 91.0331 324.178 91.9856C323.783 92.9381 323.68 93.9863 323.881 94.9975C324.082 96.0087 324.579 96.9375 325.308 97.6666C326.038 98.3956 326.967 98.8921 327.979 99.0932C328.99 99.2944 330.039 99.1911 330.992 98.7966C331.945 98.402 332.759 97.7339 333.332 96.8766C333.906 96.0194 334.211 95.0115 334.211 93.9805C334.21 92.5983 333.66 91.2732 332.682 90.2959C331.705 89.3186 330.379 88.7689 328.996 88.7676ZM328.996 98.8666C328.029 98.8666 327.084 98.5801 326.28 98.0432C325.477 97.5063 324.85 96.7432 324.48 95.8503C324.11 94.9575 324.013 93.9751 324.202 93.0272C324.39 92.0794 324.856 91.2088 325.54 90.5254C326.223 89.8421 327.094 89.3768 328.043 89.1882C328.991 88.9997 329.974 89.0964 330.867 89.4663C331.76 89.8361 332.524 90.4624 333.061 91.2659C333.598 92.0694 333.884 93.0141 333.884 93.9805C333.882 95.2751 333.366 96.5158 332.449 97.4308C331.533 98.3457 330.291 98.8602 328.996 98.8616V98.8666Z" fill="#A8C3F7"/>
<path d="M332.25 93.5419C332.264 93.5026 332.275 93.4621 332.283 93.4209C332.274 93.4618 332.263 93.5023 332.25 93.5419Z" fill="#A8C3F7"/>
<path d="M327.225 96.1135C326.53 96.0552 326.171 95.7284 326.155 95.1433C326.148 94.9248 326.189 94.7073 326.274 94.5058C326.359 94.3043 326.486 94.1234 326.647 93.9756C326.779 94.6519 327.136 95.2218 327.531 95.3434C327.642 95.3774 327.762 95.3748 327.871 95.336C327.98 95.2973 328.075 95.2244 328.14 95.1281C328.324 94.8937 328.48 94.6387 328.606 94.3682C328.673 94.436 328.764 94.4766 328.859 94.4822C329.113 94.4822 329.341 94.3024 329.554 93.9275C329.612 93.8244 329.663 93.7178 329.708 93.6083C329.723 93.6239 329.74 93.6376 329.759 93.6488C329.797 93.6696 329.841 93.6773 329.884 93.6709C329.927 93.6645 329.967 93.6443 329.997 93.6134C330.163 93.4391 330.299 93.2378 330.397 93.0181C330.42 93.0696 330.458 93.1128 330.506 93.1422C330.556 93.165 330.612 93.1712 330.665 93.1598C330.719 93.1484 330.767 93.12 330.803 93.0789C330.832 93.0576 330.852 93.0266 330.859 92.9916C330.867 92.9566 330.861 92.9201 330.843 92.8889C330.808 92.8231 330.694 92.775 330.524 92.7471C330.704 92.3342 330.828 91.9036 330.762 91.7339C330.75 91.702 330.728 91.6748 330.7 91.6565C330.671 91.6383 330.637 91.6299 330.603 91.6326C330.484 91.6326 330.397 91.7643 330.349 91.9999C330.302 92.2324 330.292 92.4709 330.319 92.7066C330.2 92.7066 330.066 92.7066 329.913 92.7066C329.917 92.6182 329.896 92.5305 329.853 92.4533C329.839 92.4227 329.815 92.3977 329.785 92.3821C329.755 92.3665 329.721 92.3613 329.688 92.3671C329.594 92.3899 329.561 92.4989 329.549 92.5926C329.549 92.628 329.549 92.6711 329.549 92.7192C329.101 92.7555 328.657 92.8318 328.223 92.9472C327.72 93.0705 327.242 93.2833 326.814 93.5754C326.802 93.3727 326.814 93.1194 326.964 93.0283C327.113 92.9371 327.44 93.0536 327.544 93.1144L327.645 92.9396C327.625 92.9396 327.166 92.6635 326.857 92.856C326.667 92.9751 326.584 93.2309 326.604 93.6159C326.604 93.6514 326.604 93.6894 326.604 93.7274C326.394 93.8972 326.226 94.1125 326.113 94.357C325.999 94.6015 325.942 94.8687 325.948 95.1382C325.965 95.8247 326.411 96.2401 327.215 96.306C327.847 96.3268 328.479 96.228 329.075 96.0147C330.58 95.5283 331.979 94.4949 332.258 93.5425C331.847 94.7355 328.918 96.2553 327.225 96.1135ZM330.582 91.9188C330.571 91.9898 330.555 92.06 330.534 92.129C330.544 92.0577 330.56 91.9873 330.582 91.9188ZM329.901 92.9143C330.02 92.9143 330.129 92.9143 330.225 92.9143C330.138 93.1174 330.015 93.3034 329.863 93.4639C329.863 93.4639 329.835 93.4462 329.804 93.3499C329.849 93.2078 329.882 93.0621 329.901 92.9143ZM328.809 93.0283C329.062 92.9827 329.315 92.9523 329.533 92.9345C329.538 93.0738 329.558 93.2122 329.592 93.3474C329.537 93.5125 329.467 93.672 329.381 93.8236C329.214 94.1174 329.029 94.2796 328.874 94.2745C328.837 94.2701 328.801 94.2568 328.77 94.2356C328.738 94.2145 328.713 94.1861 328.695 94.1529C328.864 93.7198 328.94 93.2892 328.809 93.0359V93.0283ZM328.608 93.0916C328.707 93.2233 328.684 93.5146 328.583 93.8515C328.529 93.6 328.538 93.3389 328.608 93.0916ZM327.427 93.4538C327.736 93.3105 328.057 93.1984 328.388 93.1195C328.335 93.3768 328.335 93.6423 328.388 93.8996C328.407 93.9911 328.436 94.0802 328.474 94.1656C328.349 94.4652 328.183 94.7463 327.982 95.0015C327.942 95.0645 327.883 95.1131 327.813 95.14C327.743 95.1669 327.667 95.1707 327.595 95.1509C327.291 95.0547 326.933 94.5329 326.835 93.8186C327.018 93.6747 327.217 93.5523 327.427 93.4538Z" fill="#A8C3F7"/>
<path d="M359.58 168.365L351.824 178.826L351.063 179.854L350.691 180.361L349.735 181.65L349.216 182.352L348.261 183.641L347.247 184.996L346.307 186.263L346.292 186.281L345.407 187.471V187.486L345.275 187.664L345.26 187.684L345.095 187.907L344.14 189.09V189.191L343.248 190.397L342.095 191.955L341.226 193.127L340.271 194.412L338.674 196.562L338.517 196.775L337.975 197.507L336.708 199.199L335.04 201.342V201.446L334.179 202.611L334.087 202.73L332.886 204.348L331.766 205.868V205.884L328.996 209.622L324.873 215.195L317.958 224.499L317.099 225.659L316.592 226.343C316.845 226.381 317.119 226.419 317.382 226.451C318.3 226.573 319.217 226.687 320.132 226.783C320.385 226.814 320.639 226.842 320.892 226.867L321.374 226.915C321.761 226.953 322.149 226.988 322.534 227.019L323.023 227.062L323.254 227.082C323.507 227.105 323.761 227.123 324.014 227.14H324.161C324.724 227.184 325.291 227.219 325.854 227.252L326.614 227.29C326.814 227.303 327.015 227.31 327.215 227.32H327.329C327.663 227.335 327.998 227.351 328.33 227.361C328.583 227.361 328.837 227.379 329.09 227.381L329.962 227.404H330.722H331.535H332.729C332.886 227.404 333.041 227.404 333.195 227.404H333.499H333.801H334.227H334.551H334.858C336.855 227.35 338.835 227.241 340.8 227.077C343.066 226.891 345.306 226.638 347.521 226.317C349.918 225.963 352.283 225.527 354.616 225.01L354.733 224.985C354.734 224.995 354.734 225.005 354.733 225.015L356.932 224.473C357.236 224.4 357.543 224.326 357.847 224.248C360.736 223.515 363.569 222.665 366.347 221.7C366.813 221.537 367.274 221.373 367.735 221.193L368.08 221.066C368.945 220.752 369.801 220.425 370.649 220.083C370.88 219.995 371.111 219.901 371.341 219.807L371.481 219.752C371.754 219.643 372.023 219.531 372.289 219.42L372.892 219.167C373.13 219.068 373.363 218.966 373.599 218.865L374.053 218.665L374.841 218.313C377.421 217.156 379.936 215.896 382.387 214.534C382.641 214.392 382.894 214.247 383.148 214.101L396.647 195.891L359.58 168.365Z" fill="#A8D29F"/>
<path d="M339.171 205.878V206.955L339.956 205.896V205.881H339.158L339.171 205.878ZM337.693 207.299C337.417 207.411 337.149 207.543 336.892 207.694L335.169 210.017L333.849 211.79V214.128L335.413 212.023L339.171 206.957C338.662 206.985 338.162 207.101 337.693 207.299ZM331.328 215.195L331.132 215.448L330.372 216.461L326.979 221.038V223.376L329.379 220.139L331.3 217.55L332.313 216.193L333.061 215.179H331.33L331.328 215.195ZM360.031 176.485L351.953 187.377L351.882 187.473L351.393 188.132L350.764 188.978L350.437 189.414L348.94 191.44L348.316 192.175V192.276L347.923 192.836L347.376 193.57L345.146 196.577L345.098 196.64L344.986 196.79L344.277 197.745V197.846L342.158 200.602L341.335 201.701L341.2 201.884L338.92 204.954L338.241 205.868V205.883L336.908 207.684L335.185 210.007L333.864 211.78L332.909 213.069L331.343 215.179L331.148 215.433L330.387 216.446L326.994 221.023L326.041 222.307L324.427 224.483L322.56 227.001L323.049 227.044L323.279 227.064C323.533 227.087 323.786 227.105 324.039 227.123H324.186L326.148 224.476L326.979 223.351L329.379 220.114L331.3 217.525L332.313 216.167L333.061 215.154L333.846 214.093L335.41 211.988L339.168 206.922L339.954 205.863V205.848L341.175 204.303V204.234L342.128 202.945L342.888 201.919L344.249 200.088L345.202 198.799L346.279 197.347L346.692 196.792L346.849 196.58L347.356 195.911L348.311 194.622L349.325 193.261L350.339 191.899L350.44 191.767L351.393 190.48L352.125 189.492L352.467 189.039L353.346 187.853L353.422 187.752L353.615 187.499L357.295 182.534C357.691 181.999 358.189 181.546 358.76 181.203C359.331 180.86 359.964 180.633 360.623 180.535C361.282 180.437 361.954 180.47 362.601 180.632C363.247 180.793 363.855 181.081 364.39 181.478L383.198 195.409C383.789 195.847 384.287 196.396 384.665 197.026C385.042 197.656 385.292 198.355 385.4 199.081C385.508 199.808 385.471 200.549 385.293 201.261C385.114 201.974 384.797 202.644 384.359 203.234L373.014 218.538L372.345 219.44L372.948 219.187C373.186 219.088 373.419 218.987 373.655 218.885L374.108 218.685L374.897 218.333L389.637 198.457L360.031 176.485ZM331.328 215.195L331.132 215.448L330.372 216.461L326.979 221.038V223.376L329.379 220.139L331.3 217.55L332.313 216.193L333.061 215.179H331.33L331.328 215.195ZM337.693 207.299C337.417 207.411 337.149 207.543 336.892 207.694L335.169 210.017L333.849 211.79V214.128L335.413 212.023L339.171 206.957C338.662 206.985 338.162 207.101 337.693 207.299ZM339.171 205.878V206.955L339.956 205.896V205.881H339.158L339.171 205.878Z" fill="#82B378"/>
<path d="M354.801 225.005C354.802 224.995 354.802 224.985 354.801 224.975L354.684 225C352.345 225.507 349.979 225.942 347.589 226.307C345.374 226.633 343.134 226.886 340.868 227.067C338.905 227.236 336.925 227.345 334.926 227.394H334.619H334.295C334.277 227.105 334.27 226.816 334.275 226.53C334.282 225.85 334.35 225.172 334.48 224.504C334.805 222.819 335.505 221.229 336.53 219.853C336.538 219.843 336.546 219.833 336.553 219.823C337.29 218.83 338.184 217.965 339.201 217.262C340.098 216.638 341.08 216.146 342.118 215.803C342.435 215.696 342.751 215.605 343.073 215.529C343.821 215.349 344.585 215.245 345.354 215.22C345.673 215.22 345.99 215.22 346.307 215.22C347.022 215.253 347.732 215.353 348.428 215.519C348.747 215.595 349.064 215.684 349.378 215.79C349.744 215.912 350.104 216.052 350.455 216.211C350.779 216.355 351.096 216.515 351.408 216.692C351.756 216.888 352.095 217.102 352.422 217.333L352.604 217.462C352.857 217.649 353.111 217.847 353.334 218.052L353.377 218.09C353.557 218.25 353.729 218.409 353.884 218.579C354.222 218.918 354.541 219.276 354.839 219.65C354.968 219.815 355.092 219.982 355.206 220.157V220.172C355.571 220.688 355.89 221.235 356.159 221.806C356.283 222.075 356.398 222.346 356.499 222.619C356.717 223.203 356.886 223.804 357.006 224.415L354.801 225.005Z" fill="#82B378"/>
<path opacity="0.5" d="M345.093 187.907L344.138 189.102V189.191L343.246 190.397L342.093 191.954L341.223 193.127L340.268 194.411L338.672 196.562L338.514 196.775L337.972 197.507L336.705 199.199L335.038 201.357V201.445L334.176 202.611L334.085 202.73L332.884 204.348L331.764 205.868V205.883L328.994 209.622L324.871 215.195L317.958 224.498L317.099 225.658L316.592 226.342C316.845 226.38 317.119 226.418 317.382 226.451C318.3 226.573 319.217 226.687 320.132 226.783C320.385 226.813 320.639 226.841 320.892 226.867L321.374 226.915C321.761 226.953 322.149 226.988 322.534 227.019L323.023 227.062L323.254 227.082C323.507 227.105 323.761 227.122 324.014 227.14H324.161C324.724 227.183 325.291 227.219 325.854 227.252L326.614 227.29C326.814 227.302 327.015 227.31 327.215 227.32H327.329C327.528 226.385 327.756 225.441 328.013 224.491C328.401 223.047 328.849 221.59 329.346 220.129C329.726 219.007 330.139 217.882 330.57 216.762C330.742 216.319 330.917 215.878 331.095 215.435L331.201 215.182C331.728 213.877 332.283 212.583 332.853 211.306V211.22C333.167 210.521 333.487 209.911 333.811 209.222C334.343 208.085 334.881 206.971 335.425 205.878V205.863C336.163 204.381 336.903 202.948 337.627 201.575C337.726 201.392 337.82 201.278 337.916 201.121V201.035C338.238 200.43 338.557 199.834 338.872 199.262C339.338 198.401 339.797 197.572 340.238 196.78L340.357 196.564C340.635 196.058 340.907 195.665 341.173 195.199V195.115C341.814 193.976 342.407 192.932 342.931 192.002C343.248 191.44 343.54 190.923 343.801 190.45C343.902 190.267 344.001 190.093 344.089 189.925C344.51 189.165 344.834 188.537 345.045 188.081C345.113 187.929 345.169 187.798 345.21 187.681L345.093 187.907Z" fill="#82B378"/>
<path d="M356.499 217.239V222.505C356.499 222.558 356.499 222.609 356.499 222.662C356.473 223.011 356.355 223.346 356.157 223.635C355.925 223.979 355.593 224.244 355.207 224.394C355.115 224.43 355.021 224.458 354.925 224.481L354.834 224.501C354.776 224.501 354.717 224.519 354.657 224.524C354.596 224.528 354.535 224.528 354.474 224.524H324.42H317.958H306.488C305.412 224.291 304.333 224.046 303.252 223.789L302.492 223.602C301.774 223.433 301.055 223.254 300.335 223.065C300.019 222.986 299.702 222.905 299.385 222.811C298.839 222.673 298.294 222.529 297.748 222.381C297.16 222.222 296.569 222.059 295.974 221.892L295.214 221.674C293.753 221.257 292.291 220.82 290.83 220.362L290.66 220.309C290.219 220.172 289.779 220.032 289.34 219.888C289.086 219.81 288.833 219.724 288.58 219.635C284.459 218.295 280.356 216.803 276.304 215.172H277.475H299.408H300.363H306.265H354.591C354.681 215.176 354.771 215.186 354.859 215.202C355.126 215.25 355.381 215.352 355.608 215.5C355.836 215.648 356.031 215.841 356.182 216.066C356.405 216.415 356.516 216.825 356.499 217.239Z" fill="#FFB93E"/>
<path d="M315.302 224.499H306.488C305.412 224.266 304.333 224.021 303.252 223.764L302.492 223.577C301.774 223.408 301.055 223.229 300.335 223.04C300.019 222.961 299.702 222.88 299.385 222.786C298.839 222.648 298.294 222.504 297.748 222.356C297.16 222.197 296.569 222.034 295.974 221.867L295.214 221.649C293.753 221.232 292.291 220.794 290.83 220.337L290.66 220.284C290.219 220.147 289.779 220.007 289.34 219.863C289.086 219.785 288.833 219.699 288.58 219.61C284.459 218.27 280.356 216.778 276.304 215.147H277.475H299.408H300.363H306.265H309.813C310.163 216.697 310.705 218.197 311.427 219.612C312.257 221.244 313.373 222.714 314.722 223.951C314.808 224.032 314.902 224.111 314.993 224.205C315.01 224.222 315.031 224.235 315.051 224.253C315.117 224.352 315.211 224.43 315.302 224.499Z" fill="#FFA412"/>
<path d="M346.289 215.205H345.336V224.526H346.289V215.205Z" fill="#FFA412"/>
<path d="M343.06 215.202H342.108V224.524H343.06V215.202Z" fill="#FFA412"/>
<path d="M339.193 215.203L338.24 215.202L338.23 224.524L339.183 224.525L339.193 215.203Z" fill="#FFA412"/>
<path d="M333.261 215.195H332.308V224.516H333.261V215.195Z" fill="#FFA412"/>
<path d="M326.987 215.192H326.034V224.514H326.987V215.192Z" fill="#FFA412"/>
<path d="M317.372 215.185H316.419V224.506H317.372V215.185Z" fill="#FFA412"/>
<path d="M308.368 215.179H307.416V224.501H308.368V215.179Z" fill="#FFA412"/>
<path d="M300.333 215.172V223.039C300.016 222.961 299.699 222.88 299.383 222.786V215.164L300.333 215.172Z" fill="#FFA412"/>
<path d="M349.36 215.208H348.407V224.529H349.36V215.208Z" fill="#FFA412"/>
<path d="M351.39 215.208H350.437V224.529H351.39V215.208Z" fill="#FFA412"/>
<path d="M353.655 214.792H352.703V224.114H353.655V214.792Z" fill="#FFA412"/>
<path d="M354.829 215.243V224.498C354.711 224.521 354.592 224.532 354.472 224.531H353.876V215.21H354.472C354.592 215.211 354.711 215.222 354.829 215.243Z" fill="#FFA412"/>
<path d="M356.152 216.107V223.637C355.918 223.981 355.586 224.246 355.199 224.397V215.349C355.585 215.5 355.918 215.764 356.152 216.107Z" fill="#FFA412"/>
<path d="M363.359 207.925V213.189C363.359 213.593 363.237 213.987 363.009 214.321C362.777 214.666 362.444 214.931 362.056 215.081C361.823 215.17 361.576 215.216 361.327 215.218L277.447 215.159C276.927 215.16 276.426 214.961 276.049 214.602C275.671 214.244 275.446 213.754 275.42 213.234C275.42 213.199 275.42 213.166 275.42 213.13V207.867V207.763C275.444 207.285 275.637 206.83 275.965 206.481C276.293 206.131 276.733 205.909 277.209 205.853C277.293 205.842 277.378 205.837 277.463 205.838L361.342 205.896C361.674 205.897 362.001 205.979 362.294 206.135C362.587 206.291 362.837 206.517 363.022 206.793C363.245 207.128 363.363 207.522 363.359 207.925Z" fill="#FFB93E"/>
<path d="M322.164 215.187L277.227 215.157C276.261 215.157 275.453 214.301 275.417 213.232C275.417 213.196 275.417 213.163 275.417 213.128V207.864V207.761C275.463 206.773 276.15 205.965 277.016 205.851C277.087 205.84 277.158 205.835 277.229 205.835L316.65 205.863C316.65 205.863 316.65 205.863 316.65 205.879C317.286 208.622 318.751 212.409 322.164 215.187Z" fill="#FFA412"/>
<path d="M353.151 205.889H352.198V215.21H353.151V205.889Z" fill="#FFA412"/>
<path d="M349.923 205.886H348.97V215.207H349.923V205.886Z" fill="#FFA412"/>
<path d="M346.053 205.883H345.101V215.205H346.053V205.883Z" fill="#FFA412"/>
<path d="M340.121 205.878H339.168V215.2H340.121V205.878Z" fill="#FFA412"/>
<path d="M333.849 205.876H332.896V215.197H333.849V205.876Z" fill="#FFA412"/>
<path d="M324.232 205.868H323.279V215.19H324.232V205.868Z" fill="#FFA412"/>
<path d="M315.228 205.863H314.275V215.185H315.228V205.863Z" fill="#FFA412"/>
<path d="M307.19 205.855H306.237V215.177H307.19V205.855Z" fill="#FFA412"/>
<path d="M356.223 205.891H355.27V215.213H356.223V205.891Z" fill="#FFA412"/>
<path d="M358.252 205.891H357.3V215.213H358.252V205.891Z" fill="#FFA412"/>
<path d="M360.211 205.894H359.258V215.215H360.211V205.894Z" fill="#FFA412"/>
<path d="M361.689 205.926V215.182C361.57 215.205 361.45 215.216 361.329 215.215H360.733V205.894H361.329C361.45 205.894 361.57 205.905 361.689 205.926Z" fill="#FFA412"/>
<path d="M363.011 206.79V214.321C362.779 214.666 362.447 214.931 362.059 215.081V206.033C362.445 206.184 362.777 206.448 363.011 206.79Z" fill="#FFA412"/>
<path d="M352.353 198.609V203.875C352.354 204.278 352.233 204.673 352.006 205.007C351.774 205.352 351.441 205.617 351.053 205.767C350.933 205.814 350.808 205.849 350.68 205.871L350.564 205.888H350.47H350.323L266.444 205.83C265.923 205.831 265.423 205.631 265.045 205.273C264.668 204.915 264.443 204.425 264.417 203.905C264.417 203.87 264.417 203.837 264.417 203.801V198.538C264.417 198.502 264.417 198.467 264.417 198.434C264.443 197.914 264.668 197.424 265.045 197.066C265.423 196.708 265.923 196.508 266.444 196.509L350.323 196.567H350.43C350.642 196.58 350.852 196.625 351.05 196.701C351.111 196.727 351.172 196.752 351.228 196.78L351.332 196.838L351.436 196.901H351.451C351.483 196.921 351.513 196.943 351.542 196.967C351.615 197.02 351.683 197.079 351.745 197.145C351.765 197.163 351.783 197.182 351.801 197.203C351.802 197.207 351.802 197.211 351.801 197.216C351.814 197.226 351.826 197.239 351.836 197.253C351.857 197.277 351.876 197.301 351.894 197.327C351.922 197.362 351.95 197.398 351.975 197.436C352.221 197.778 352.353 198.188 352.353 198.609Z" fill="#FFB93E"/>
<path d="M311.159 205.873L266.219 205.843C265.256 205.843 264.46 204.984 264.412 203.918C264.412 203.882 264.412 203.849 264.412 203.814V198.55C264.412 198.515 264.412 198.479 264.412 198.447C264.463 197.378 265.258 196.521 266.224 196.521L305.644 196.549C305.66 196.62 305.675 196.691 305.695 196.765C306.346 199.485 307.819 203.148 311.138 205.861L311.159 205.873Z" fill="#FFA412"/>
<path d="M342.143 196.575H341.19V205.896H342.143V196.575Z" fill="#FFA412"/>
<path d="M338.917 196.572H337.964V205.894H338.917V196.572Z" fill="#FFA412"/>
<path d="M335.048 196.57H334.095V205.891H335.048V196.57Z" fill="#FFA412"/>
<path d="M329.115 196.564H328.162V205.886H329.115V196.564Z" fill="#FFA412"/>
<path d="M322.843 196.562H321.891V205.883H322.843V196.562Z" fill="#FFA412"/>
<path d="M313.226 196.554H312.273V205.876H313.226V196.554Z" fill="#FFA412"/>
<path d="M304.223 196.549H303.27V205.871H304.223V196.549Z" fill="#FFA412"/>
<path d="M296.468 196.182H295.515V205.504H296.468V196.182Z" fill="#FFA412"/>
<path d="M345.215 196.577H344.262V205.899H345.215V196.577Z" fill="#FFA412"/>
<path d="M347.244 196.577H346.292V205.899H347.244V196.577Z" fill="#FFA412"/>
<path d="M349.206 196.58H348.253V205.901H349.206V196.58Z" fill="#FFA412"/>
<path d="M350.683 196.613V205.868C350.565 205.891 350.446 205.902 350.326 205.901H349.73V196.58H350.326C350.446 196.581 350.565 196.592 350.683 196.613Z" fill="#FFA412"/>
<path d="M352.006 197.476V205.007C351.774 205.352 351.441 205.617 351.053 205.767V196.719C351.44 196.87 351.772 197.134 352.006 197.476Z" fill="#FFA412"/>
<path d="M358.526 189.508V194.771C358.527 195.176 358.405 195.571 358.177 195.906C358.025 196.131 357.829 196.323 357.601 196.471C357.374 196.619 357.119 196.72 356.851 196.767C356.733 196.788 356.614 196.799 356.494 196.8L272.615 196.742C272.301 196.742 271.991 196.668 271.71 196.527C271.402 196.372 271.138 196.141 270.943 195.857C270.748 195.573 270.629 195.243 270.595 194.9C270.595 194.872 270.595 194.845 270.595 194.817C270.595 194.789 270.595 194.746 270.595 194.713V189.449C270.595 189.414 270.595 189.378 270.595 189.343C270.62 188.865 270.813 188.411 271.141 188.062C271.468 187.713 271.909 187.491 272.384 187.436C272.464 187.425 272.545 187.42 272.625 187.42L356.504 187.479C356.624 187.478 356.744 187.489 356.861 187.512C356.988 187.534 357.112 187.569 357.231 187.615C357.619 187.766 357.951 188.031 358.184 188.375C358.41 188.71 358.529 189.104 358.526 189.508Z" fill="#FFB93E"/>
<path d="M317.332 196.772L272.394 196.742C272.11 196.741 271.83 196.667 271.583 196.527C271.298 196.356 271.059 196.119 270.886 195.836C270.713 195.552 270.612 195.232 270.59 194.9C270.59 194.873 270.59 194.845 270.59 194.817C270.59 194.789 270.59 194.746 270.59 194.713V189.449C270.59 189.414 270.59 189.378 270.59 189.343C270.635 188.358 271.322 187.55 272.189 187.436C272.259 187.425 272.331 187.42 272.402 187.42L311.822 187.448C311.822 187.448 311.822 187.448 311.822 187.463C312.436 190.136 313.85 193.796 317.073 196.557C317.157 196.635 317.243 196.701 317.332 196.772Z" fill="#FFA412"/>
<path d="M348.316 187.474H347.364V196.795H348.316V187.474Z" fill="#FFA412"/>
<path d="M345.09 187.471H344.137V196.792H345.09V187.471Z" fill="#FFA412"/>
<path d="M341.221 187.469H340.268V196.79H341.221V187.469Z" fill="#FFA412"/>
<path d="M335.289 187.463H334.336V196.785H335.289V187.463Z" fill="#FFA412"/>
<path d="M329.016 187.458H328.063V196.78H329.016V187.458Z" fill="#FFA412"/>
<path d="M319.4 187.454H318.447V196.775H319.4V187.454Z" fill="#FFA412"/>
<path d="M310.396 187.446H309.443V196.767H310.396V187.446Z" fill="#FFA412"/>
<path d="M302.357 187.441H301.405V196.762H302.357V187.441Z" fill="#FFA412"/>
<path d="M351.388 187.474H350.435V196.795H351.388V187.474Z" fill="#FFA412"/>
<path d="M353.417 187.476H352.465V196.798H353.417V187.476Z" fill="#FFA412"/>
<path d="M355.379 187.479H354.426V196.8H355.379V187.479Z" fill="#FFA412"/>
<path d="M356.856 187.517V196.772C356.738 196.794 356.619 196.805 356.499 196.805H355.903V187.484H356.499C356.619 187.483 356.738 187.494 356.856 187.517Z" fill="#FFA412"/>
<path d="M358.179 188.375V195.903C357.947 196.248 357.614 196.514 357.226 196.663V187.615C357.614 187.765 357.947 188.03 358.179 188.375Z" fill="#FFA412"/>
<path d="M352.366 180.199V185.462C352.365 185.872 352.24 186.272 352.008 186.609C351.775 186.947 351.446 187.206 351.063 187.352C350.943 187.4 350.818 187.434 350.691 187.456C350.652 187.464 350.613 187.47 350.574 187.474H350.508H350.442H350.333L266.454 187.415C265.934 187.416 265.433 187.216 265.055 186.858C264.678 186.5 264.453 186.01 264.427 185.49C264.427 185.455 264.427 185.422 264.427 185.386V180.123C264.427 180.087 264.427 180.052 264.427 180.019C264.454 179.5 264.679 179.011 265.056 178.653C265.434 178.295 265.934 178.096 266.454 178.096L350.333 178.152C350.453 178.153 350.573 178.164 350.691 178.185C350.958 178.233 351.213 178.334 351.44 178.483C351.667 178.631 351.862 178.824 352.014 179.049C352.246 179.387 352.369 179.789 352.366 180.199Z" fill="#FFB93E"/>
<path d="M311.179 187.461L266.239 187.431C265.276 187.431 264.48 186.575 264.432 185.506C264.432 185.47 264.432 185.437 264.432 185.402V180.138C264.432 180.103 264.432 180.067 264.432 180.034C264.483 178.965 265.278 178.109 266.244 178.112L305.662 178.137C306.29 180.878 307.75 184.665 311.158 187.448L311.179 187.461Z" fill="#FFA412"/>
<path d="M342.159 178.167L341.206 178.166L341.196 187.487L342.149 187.488L342.159 178.167Z" fill="#FFA412"/>
<path d="M338.93 178.16H337.977V187.481H338.93V178.16Z" fill="#FFA412"/>
<path d="M335.06 178.157H334.107V187.479H335.06V178.157Z" fill="#FFA412"/>
<path d="M329.128 178.152H328.175V187.474H329.128V178.152Z" fill="#FFA412"/>
<path d="M322.856 178.149H321.903V187.471H322.856V178.149Z" fill="#FFA412"/>
<path d="M313.239 178.142H312.286V187.464H313.239V178.142Z" fill="#FFA412"/>
<path d="M304.235 178.137H303.282V187.458H304.235V178.137Z" fill="#FFA412"/>
<path d="M296.195 178.129H295.242V187.451H296.195V178.129Z" fill="#FFA412"/>
<path d="M345.227 178.165H344.274V187.486H345.227V178.165Z" fill="#FFA412"/>
<path d="M347.257 178.165H346.304V187.486H347.257V178.165Z" fill="#FFA412"/>
<path d="M349.218 178.167H348.266V187.489H349.218V178.167Z" fill="#FFA412"/>
<path d="M350.696 178.2V187.456C350.578 187.478 350.458 187.49 350.338 187.489H349.743V178.167H350.338C350.458 178.168 350.578 178.179 350.696 178.2Z" fill="#FFA412"/>
<path d="M352.019 179.064V186.595C351.786 186.94 351.454 187.205 351.066 187.355V178.307C351.452 178.457 351.785 178.721 352.019 179.064Z" fill="#FFA412"/>
<path d="M363.703 222.586C361.799 223.185 359.87 223.738 357.915 224.245C357.611 224.324 357.305 224.397 357.001 224.471C356.274 224.651 355.544 224.82 354.809 224.977L354.692 225.002C352.352 225.509 349.987 225.945 347.597 226.309C345.382 226.635 343.142 226.889 340.876 227.069C338.913 227.238 336.932 227.347 334.934 227.396H334.627H334.303H333.877H333.575H333.271C333.117 227.396 332.962 227.396 332.805 227.396H331.611H330.798H330.038L329.166 227.373C328.913 227.373 328.659 227.373 328.406 227.353C328.074 227.353 327.739 227.328 327.405 227.313H327.291C327.09 227.313 326.89 227.295 326.69 227.282L325.93 227.244C325.367 227.211 324.8 227.176 324.237 227.133H324.09C323.837 227.115 323.583 227.097 323.33 227.074L323.099 227.054L322.61 227.011C322.225 226.981 321.837 226.945 321.45 226.907L320.968 226.859C320.715 226.834 320.461 226.806 320.208 226.776C319.293 226.679 318.376 226.565 317.458 226.444C317.205 226.411 316.931 226.373 316.668 226.335L316.414 226.294C316.342 226.289 316.27 226.279 316.199 226.266L315.654 226.185C315.603 226.185 315.553 226.17 315.505 226.163H315.474H315.429C314.753 226.061 314.067 225.951 313.371 225.831L312.651 225.704L311.934 225.575L311.126 225.42C310.872 225.375 310.619 225.324 310.365 225.273C309.11 225.03 307.854 224.772 306.597 224.498C305.521 224.265 304.442 224.02 303.361 223.764L302.601 223.576L302.231 223.485C301.739 217.745 302.923 211.985 305.641 206.905C308.359 201.824 312.493 197.641 317.542 194.862C317.922 194.655 318.306 194.454 318.695 194.262C319.063 194.039 319.437 193.821 319.818 193.608C324.569 190.994 329.945 189.726 335.364 189.941C340.784 190.156 346.042 191.847 350.571 194.83C355.099 197.813 358.727 201.976 361.063 206.87C363.398 211.763 364.352 217.201 363.822 222.596L363.703 222.586Z" fill="#E2810E"/>
<path d="M369.446 201.522C366.884 196.855 363.112 192.964 358.526 190.257L358.179 190.055C357.865 189.875 357.548 189.7 357.226 189.548C357.102 189.48 356.973 189.417 356.854 189.356C356.54 189.194 356.223 189.039 355.901 188.892C355.729 188.814 355.556 188.733 355.394 188.659C355.077 188.517 354.761 188.386 354.441 188.259C354.122 188.132 353.772 188.006 353.428 187.874L353.352 187.849C353.06 187.745 352.769 187.646 352.472 187.552L352.27 187.489H352.183C352.112 187.449 352.036 187.417 351.958 187.393C351.763 187.332 351.565 187.276 351.365 187.22L351.066 187.137L350.693 187.041C350.377 186.96 350.057 186.884 349.741 186.815C349.568 186.777 349.396 186.739 349.221 186.706C348.904 186.643 348.585 186.582 348.266 186.531C347.946 186.481 347.597 186.423 347.252 186.377C346.907 186.331 346.629 186.301 346.314 186.271H346.299C345.942 186.235 345.585 186.207 345.225 186.182C344.908 186.164 344.589 186.149 344.269 186.136C343.565 186.116 342.859 186.116 342.151 186.136C341.837 186.136 341.517 186.167 341.198 186.189C340.441 186.244 339.681 186.328 338.917 186.443C338.601 186.488 338.284 186.542 337.967 186.6C336.984 186.781 336.01 187.012 335.05 187.291C334.855 187.347 334.663 187.405 334.467 187.469L334.422 187.484L334.333 187.512C332.49 188.098 330.707 188.861 329.011 189.791H328.991C328.677 189.966 328.363 190.143 328.059 190.326L327.891 190.427C325.18 192.068 322.749 194.134 320.692 196.544C320.629 196.615 320.568 196.689 320.51 196.76C318.253 199.458 316.493 202.535 315.312 205.848C315.311 205.853 315.311 205.858 315.312 205.863L315.234 206.084C314.848 207.188 314.529 208.315 314.278 209.458V209.544C313.863 211.391 313.63 213.274 313.584 215.167C313.509 218.14 313.885 221.106 314.699 223.967C314.744 224.139 314.798 224.311 314.851 224.473C315.02 225.034 315.208 225.592 315.416 226.148C315.464 226.148 315.515 226.165 315.566 226.17L316.11 226.251C316.182 226.264 316.254 226.274 316.326 226.279L316.579 226.32C316.833 226.358 317.106 226.396 317.37 226.429C318.287 226.55 319.204 226.664 320.119 226.761C320.373 226.791 320.626 226.819 320.88 226.844L321.361 226.892C321.749 226.93 322.136 226.966 322.522 226.996L323.011 227.039L323.241 227.059C323.495 227.082 323.748 227.1 324.002 227.118H324.149C324.711 227.161 325.279 227.196 325.841 227.229L326.602 227.267C326.802 227.28 327.002 227.287 327.202 227.298H327.316C327.651 227.313 327.985 227.328 328.317 227.338C328.571 227.338 328.824 227.356 329.077 227.358L329.949 227.381H330.709H331.523H332.716C332.873 227.381 333.028 227.381 333.183 227.381H333.487H333.788H334.214H334.538H334.845C336.842 227.327 338.823 227.218 340.787 227.054C343.053 226.869 345.293 226.615 347.508 226.294C349.905 225.94 352.27 225.504 354.603 224.987L354.72 224.962C354.721 224.972 354.721 224.982 354.72 224.992L356.92 224.45C357.224 224.377 357.53 224.304 357.834 224.225C360.723 223.492 363.556 222.643 366.334 221.677C366.8 221.515 367.261 221.35 367.723 221.17L368.067 221.044C368.932 220.729 369.789 220.402 370.637 220.061C370.867 219.972 371.098 219.878 371.329 219.785L371.468 219.729C371.742 219.62 372.01 219.509 372.276 219.397L372.879 219.144C372.905 218.928 372.928 218.713 372.945 218.498C373.497 212.617 372.279 206.705 369.446 201.522Z" fill="#E2810E"/>
<path d="M367.183 202.773C365.065 198.911 362.111 195.571 358.536 192.996C358.422 192.912 358.308 192.831 358.189 192.742C357.877 192.521 357.56 192.308 357.239 192.102L356.866 191.866C356.552 191.671 356.233 191.481 355.911 191.299C355.739 191.2 355.566 191.104 355.404 191.01C355.09 190.835 354.773 190.67 354.451 190.503C354.129 190.336 353.782 190.179 353.438 190.027C353.093 189.875 352.804 189.743 352.482 189.612L352.14 189.472C351.887 189.376 351.654 189.282 351.408 189.194C351.162 189.105 350.99 189.042 350.782 188.968L350.458 188.862C349.758 188.629 349.052 188.423 348.339 188.244C348.022 188.165 347.703 188.092 347.384 188.023C346.694 187.874 345.995 187.747 345.293 187.649L345.111 187.623C344.794 187.578 344.477 187.542 344.158 187.509C344.034 187.494 343.904 187.484 343.78 187.471H343.689L343.618 187.456H343.433C343.028 187.413 342.561 187.385 342.166 187.37C341.849 187.37 341.532 187.35 341.213 187.35C340.453 187.35 339.693 187.37 338.932 187.426C338.816 187.426 338.697 187.441 338.575 187.453H338.453L338.403 187.469H338.286C337.283 187.561 336.285 187.71 335.299 187.914C334.982 187.975 334.665 188.044 334.346 188.12C332.519 188.54 330.737 189.134 329.024 189.893C328.707 190.032 328.388 190.182 328.071 190.336L327.904 190.417C327.509 190.611 327.116 190.816 326.726 191.033C324.07 192.49 321.653 194.344 319.559 196.532L319.405 196.694C319.389 196.713 319.372 196.731 319.354 196.747C316.872 199.395 314.897 202.474 313.525 205.833C313.527 205.838 313.527 205.843 313.525 205.848C312.315 208.815 311.589 211.957 311.376 215.154C311.166 218.287 311.456 221.432 312.236 224.473C312.337 224.879 312.448 225.279 312.57 225.679L313.29 225.806C313.977 225.924 314.663 226.034 315.347 226.137H315.393H315.423C315.472 226.137 315.522 226.155 315.573 226.16L316.118 226.241C316.189 226.254 316.261 226.264 316.333 226.269L316.587 226.31C316.84 226.348 317.114 226.386 317.377 226.419C318.295 226.54 319.212 226.654 320.127 226.75C320.38 226.781 320.634 226.809 320.887 226.834L321.368 226.882C321.756 226.92 322.144 226.956 322.529 226.986L323.018 227.029L323.249 227.049C323.502 227.072 323.756 227.09 324.009 227.108H324.156C324.719 227.151 325.286 227.186 325.849 227.219L326.609 227.257C326.809 227.27 327.009 227.277 327.21 227.287H327.324C327.658 227.303 327.993 227.318 328.325 227.328C328.578 227.328 328.831 227.346 329.085 227.348L329.957 227.371H330.717H331.53H332.724C332.881 227.371 333.036 227.371 333.19 227.371H333.494H333.796H334.222H334.546H334.853C336.849 227.317 338.83 227.208 340.795 227.044C343.06 226.858 345.301 226.605 347.515 226.284C349.913 225.93 352.278 225.494 354.611 224.977L354.728 224.952C354.728 224.962 354.728 224.972 354.728 224.982L356.927 224.44C357.231 224.367 357.538 224.293 357.842 224.215C360.731 223.482 363.564 222.633 366.341 221.667C366.808 221.505 367.269 221.34 367.73 221.16L368.075 221.033C368.94 220.719 369.796 220.392 370.644 220.051C371.272 214.074 370.065 208.047 367.183 202.773Z" fill="#FFB93E"/>
<path d="M365.021 204.359C363.267 201.164 360.882 198.358 358.012 196.111C357.758 195.909 357.49 195.709 357.221 195.516C357.1 195.425 356.968 195.336 356.849 195.263C356.537 195.042 356.218 194.83 355.896 194.624C355.726 194.513 355.554 194.407 355.389 194.3C355.075 194.11 354.756 193.923 354.434 193.748C354.112 193.573 353.767 193.386 353.42 193.219C353.073 193.051 352.787 192.907 352.467 192.763C352.11 192.603 351.753 192.449 351.39 192.307C351.076 192.178 350.759 192.053 350.44 191.942L350.339 191.906C349.877 191.738 349.412 191.587 348.942 191.456C348.734 191.392 348.529 191.334 348.321 191.278C348.005 191.192 347.688 191.111 347.369 191.04C346.608 190.865 345.848 190.724 345.088 190.61C344.771 190.564 344.454 190.526 344.135 190.493C344.042 190.481 343.946 190.471 343.846 190.463C343.646 190.442 343.443 190.425 343.243 190.409C342.567 190.359 341.892 190.333 341.216 190.333C340.899 190.333 340.58 190.334 340.263 190.349C338.588 190.408 336.922 190.622 335.286 190.99C334.967 191.06 334.647 191.139 334.331 191.225C332.49 191.711 330.706 192.39 329.009 193.252C328.725 193.396 328.444 193.543 328.163 193.7L328.056 193.758C326.595 194.569 325.213 195.513 323.926 196.577C323.837 196.646 323.751 196.717 323.672 196.793C323.391 197.028 323.117 197.271 322.849 197.517C322.522 197.819 322.205 198.122 321.896 198.439C319.758 200.606 318.005 203.122 316.713 205.879C316.712 205.884 316.712 205.889 316.713 205.894C316.7 205.915 316.689 205.938 316.68 205.962C316.105 207.197 315.623 208.473 315.239 209.779V209.835C315.224 209.858 315.211 209.881 315.201 209.906C314.763 211.347 314.455 212.825 314.281 214.321V214.336V214.351V214.367V214.382C314.255 214.605 314.233 214.83 314.215 215.058C314.146 215.818 314.116 216.578 314.116 217.356C314.116 219.631 314.405 221.896 314.978 224.098L315.054 224.377C315.208 224.949 315.381 225.512 315.56 226.074L316.105 226.155C316.177 226.168 316.248 226.177 316.321 226.183L316.574 226.224C316.827 226.262 317.101 226.3 317.365 226.332C317.266 226.079 317.167 225.806 317.081 225.54C316.947 225.156 316.823 224.77 316.708 224.38C316.597 223.989 316.493 223.701 316.399 223.306V223.204C315.763 220.539 315.565 217.787 315.814 215.058C315.964 213.419 316.271 211.798 316.731 210.218C316.924 209.542 317.142 208.888 317.385 208.254C317.707 207.403 318.075 206.569 318.487 205.757C318.486 205.752 318.486 205.747 318.487 205.742C319.405 203.928 320.539 202.233 321.865 200.693C322.169 200.334 322.486 199.987 322.818 199.647C323.872 198.546 325.026 197.545 326.265 196.656C326.366 196.582 326.465 196.509 326.569 196.441H326.589C327.063 196.106 327.532 195.79 328.031 195.491C328.322 195.311 328.619 195.141 328.918 194.984L328.986 194.946C330.672 194.023 332.457 193.294 334.308 192.775C334.625 192.684 334.944 192.603 335.263 192.522C336.896 192.13 338.564 191.902 340.243 191.841C340.557 191.841 340.871 191.823 341.185 191.823C341.474 191.823 341.766 191.823 342.055 191.838C342.349 191.838 342.648 191.863 342.941 191.886C343.329 191.912 343.717 191.947 344.1 191.99C344.419 192.027 344.736 192.07 345.05 192.119C345.81 192.236 346.57 192.388 347.331 192.573C347.513 192.618 347.695 192.664 347.878 192.715L348.283 192.828C348.623 192.925 348.957 193.031 349.297 193.14C349.67 193.264 350.04 193.393 350.407 193.538C350.729 193.662 351.043 193.791 351.36 193.925C351.722 194.082 352.08 194.25 352.437 194.432C352.756 194.589 353.075 194.751 353.39 194.923C353.704 195.096 354.064 195.298 354.403 195.496C354.743 195.693 355.044 195.888 355.359 196.099C355.533 196.213 355.706 196.332 355.865 196.451C355.977 196.529 356.091 196.608 356.2 196.689C360.075 199.481 363.087 203.304 364.894 207.724C366.702 212.143 367.231 216.981 366.423 221.687C366.889 221.525 367.35 221.36 367.811 221.18L368.156 221.054C368.942 215.296 367.842 209.439 365.021 204.359Z" fill="#FFA412"/>
</g>
<defs>
<linearGradient id="paint0_linear_23_178" x1="261.772" y1="8.77082" x2="377.391" y2="197.864" gradientUnits="userSpaceOnUse">
<stop stop-color="#E3FF9B"/>
<stop offset="1" stop-color="#9CFDBA"/>
</linearGradient>
<linearGradient id="paint1_linear_23_178" x1="195.298" y1="115.102" x2="234.476" y2="322.334" gradientUnits="userSpaceOnUse">
<stop stop-color="#E3FF9B"/>
<stop offset="1" stop-color="#9CFDBA"/>
</linearGradient>
<linearGradient id="paint2_linear_23_178" x1="537.591" y1="160.792" x2="537.591" y2="35.5112" gradientUnits="userSpaceOnUse">
<stop stop-color="#77D28C"/>
<stop offset="1" stop-color="#345C58"/>
</linearGradient>
<linearGradient id="paint3_linear_23_178" x1="532.208" y1="156.072" x2="532.208" y2="69.9414" gradientUnits="userSpaceOnUse">
<stop stop-color="#77D28C"/>
<stop offset="1"/>
</linearGradient>
<linearGradient id="paint4_linear_23_178" x1="522.914" y1="139.559" x2="522.914" y2="48.4505" gradientUnits="userSpaceOnUse">
<stop stop-color="#77D28C"/>
<stop offset="1" stop-color="#345C58"/>
</linearGradient>
<linearGradient id="paint5_linear_23_178" x1="116.291" y1="285.06" x2="116.291" y2="130.182" gradientUnits="userSpaceOnUse">
<stop stop-color="#77D28C"/>
<stop offset="1" stop-color="#345C58"/>
</linearGradient>
<linearGradient id="paint6_linear_23_178" x1="116.289" y1="229.899" x2="116.289" y2="133.761" gradientUnits="userSpaceOnUse">
<stop stop-color="#39834A"/>
<stop offset="1" stop-color="#345C58"/>
</linearGradient>
<linearGradient id="paint7_linear_23_178" x1="92.2174" y1="276.455" x2="92.2174" y2="123.309" gradientUnits="userSpaceOnUse">
<stop stop-color="#77D28C"/>
<stop offset="1" stop-color="#345C58"/>
</linearGradient>
<linearGradient id="paint8_linear_23_178" x1="376.905" y1="149.874" x2="376.905" y2="49.7197" gradientUnits="userSpaceOnUse">
<stop stop-color="#77D28C"/>
<stop offset="1" stop-color="#345C58"/>
</linearGradient>
<linearGradient id="paint9_linear_23_178" x1="416.748" y1="185.888" x2="416.748" y2="52.1885" gradientUnits="userSpaceOnUse">
<stop stop-color="#77D28C"/>
<stop offset="1" stop-color="#345C58"/>
</linearGradient>
</defs>
</svg>
