<svg width="590" height="300" viewBox="0 0 590 300" fill="none" xmlns="http://www.w3.org/2000/svg">
<path d="M46.0513 299.997L413.522 298.873L430.084 298.828L451.728 298.766H453.861L460.723 298.746H464.619H471.423H474.369L531.531 298.584C531.531 298.584 533.022 280.189 531.171 254.948C530.663 248.035 529.903 240.61 528.798 232.907C528.428 230.34 528.018 227.753 527.567 225.121C526.788 220.6 525.872 216.02 524.831 211.419C524.757 211.075 524.679 210.732 524.601 210.412C523.418 205.341 522.058 200.252 520.495 195.202C507.096 151.937 477.098 60.9575 419.964 82.5658C314.893 122.319 342.399 7.701 253.402 0.269147C196.282 -4.51706 154.563 55.2848 161.086 119.553C172.122 228.269 47.6651 149.453 46.0513 299.997Z" fill="url(#paint0_linear_15_136)"/>
<path d="M342.067 253.941L354.567 128.854H379.232C394.489 128.854 406.016 142.989 402.988 158.145C402.934 158.43 402.873 158.719 402.812 159.007C396.709 187.993 378.74 236.171 384.87 253.941H342.067Z" fill="#657285"/>
<path d="M268.832 224.369C273.917 199.063 279.956 166.938 284.299 144.195C285.124 139.876 287.407 135.983 290.755 133.184C294.104 130.384 298.31 128.854 302.651 128.854H363.084C365.809 128.854 368.501 129.458 370.972 130.623C373.443 131.789 375.632 133.488 377.387 135.601C379.141 137.714 380.419 140.191 381.129 142.857C381.84 145.523 381.966 148.315 381.5 151.036L366.922 238.236C366.108 242.985 363.539 247.241 359.738 250.137C355.936 253.033 351.188 254.352 346.461 253.825L285.099 246.991C282.515 246.703 280.019 245.872 277.77 244.551C275.521 243.23 273.568 241.448 272.037 239.319C270.506 237.19 269.43 234.761 268.879 232.186C268.327 229.612 268.311 226.949 268.832 224.369Z" fill="#B8C1C9"/>
<path d="M428.938 273.206C429.735 282.432 434.875 285.28 437.133 285.033C439.391 284.785 452.617 279.673 452.901 281.552C453.186 283.431 445.232 289.561 439.662 289.846C439.662 289.846 450.172 301.607 457.173 298.213C464.174 294.818 464.764 289.441 469.121 287.421C473.477 285.4 477.2 285.411 475.403 287.469C473.606 289.527 465.713 291.523 463.222 295.993C462.632 297.048 462.059 298.02 461.618 298.879L476.342 298.852C481.011 296.498 484.944 293.258 485.235 289.76C485.259 289.496 485.279 289.242 485.3 288.994L485.754 283.617C485.754 283.617 493.314 274.684 489.382 267.266C488.634 265.895 487.615 264.696 486.388 263.744C486.388 263.744 479.339 259.421 473.596 259.772C473.596 259.772 478.048 267.331 479.302 271.835C479.743 273.419 479.787 274.625 479.102 274.983C478.353 275.374 477.38 274.234 476.39 272.402C473.871 267.819 471.141 258.903 471.141 258.903C471.141 258.903 466.907 258.487 462.086 258.425C459.923 258.397 457.641 258.425 455.573 258.624C453.288 258.827 451.267 259.201 449.948 259.844C449.948 259.844 450.236 260.081 450.721 260.49C451.44 261.102 452.593 262.091 453.874 263.239C457.675 266.647 462.618 271.454 460.77 271.887C459.275 272.23 454.583 269.413 450.406 266.606C446.517 263.998 443.079 261.407 443.079 261.407C443.079 261.407 428.142 263.981 428.938 273.206Z" fill="#2B893B"/>
<path d="M436.268 273.447C436.268 273.447 476.803 271.863 485.767 283.611C485.767 283.611 487.747 289.62 493.836 295.094L494.786 297.715C494.786 297.715 487.764 290.211 485.249 289.754C485.235 289.761 489.168 275.21 436.268 273.447Z" fill="#4B975E"/>
<path d="M492.121 295.031C492.46 295.415 492.989 295.941 493.732 296.639H493.749C494.006 296.879 494.257 297.14 494.501 297.419C494.888 297.855 495.25 298.313 495.583 298.793H497.468C496.394 297.419 495.167 296.175 493.813 295.086C493.671 295.003 490.182 292.866 492.121 295.031Z" fill="#82B378"/>
<path d="M530.015 268.335C530.015 268.335 513.664 259.058 521.295 246.458C521.295 246.458 527.398 238.724 533.942 236.735C533.942 236.735 530.453 255.519 533.942 255.959C537.43 256.398 536.338 234.749 536.338 234.749C536.338 234.749 553.565 226.351 560.325 227.015C560.325 227.015 549.639 245.355 553.128 244.912C556.616 244.469 568.608 225.908 568.608 225.908C568.608 225.908 586.272 222.596 589.106 233.199C591.94 243.802 587.36 249.111 584.743 249.774C582.125 250.437 565.34 250.214 565.774 252.423C566.208 254.632 577.548 258.168 583.871 256.182C583.871 256.182 576.894 273.636 567.737 272.753C558.579 271.87 555.745 266.125 550.076 265.682C544.408 265.239 540.265 266.789 543.099 268.335C545.933 269.881 555.528 268.84 560.105 272.801C564.682 276.763 568.391 279.175 559.888 280.944C551.385 282.714 536.122 281.604 533.07 274.976L530.015 268.335Z" fill="#4EB15F"/>
<path d="M581.02 236.515C581.02 236.515 535.233 251.54 529.998 268.335C529.998 268.335 530.219 275.846 525.638 284.484V287.796C525.638 287.796 530.436 276.526 533.053 274.98C533.067 274.963 522.804 260.391 581.02 236.515Z" fill="#4B975E"/>
<path d="M521.397 298.776H524.014C524.096 294.942 524.533 290.637 525.825 287.355C525.987 286.943 526.164 286.548 526.35 286.173C526.893 285.098 527.259 284.304 527.489 283.727C528.846 280.401 525.628 284.486 525.628 284.486C523.094 288.831 521.642 293.735 521.397 298.776Z" fill="#1C9628"/>
<path d="M503.984 255.535C503.984 255.535 525.54 243.3 515.481 226.698C515.481 226.698 507.432 216.503 498.81 213.882C498.81 213.882 503.408 238.641 498.81 239.222C494.213 239.802 495.647 211.26 495.647 211.26C495.647 211.26 472.932 200.193 464.032 201.066C464.032 201.066 478.116 225.241 473.525 224.66C468.934 224.08 453.118 199.609 453.118 199.609C453.118 199.609 429.837 195.242 426.101 209.23C422.364 223.217 428.403 230.189 431.864 231.075C435.326 231.962 457.445 231.656 456.868 234.569C456.292 237.483 441.347 242.128 433.014 239.521C433.014 239.521 442.212 262.541 454.281 261.366C466.351 260.191 470.091 252.629 477.563 252.044C485.035 251.46 490.497 253.501 486.761 255.542C483.025 257.583 470.375 256.209 464.341 261.411C458.306 266.613 453.42 269.815 464.629 272.144C475.837 274.474 495.956 273.017 499.98 264.28L503.984 255.535Z" fill="#4EB15F"/>
<path d="M436.729 213.591C436.729 213.591 497.078 233.399 503.984 255.536C503.984 255.536 503.696 265.439 509.748 276.798V281.168C509.748 281.168 503.425 266.311 499.977 264.274C499.96 264.274 513.467 245.05 436.729 213.591Z" fill="#4B975E"/>
<path d="M507.276 275.794C507.585 276.553 508.069 277.604 508.785 279.027C509.033 279.521 509.259 280.039 509.463 280.58C511.528 285.83 511.938 293.069 511.86 298.79H515.325C515.738 286.077 509.707 276.8 509.707 276.8C509.639 276.68 505.537 271.464 507.276 275.794Z" fill="#1C9628"/>
<path d="M308.441 55.6425C309.119 54.3747 317.08 40.9437 338.392 50.9594C338.392 50.9594 327.468 46.9222 323.396 50.5986C323.396 50.5986 333.228 48.5371 338.043 53.2752C342.857 58.0133 341.135 69.8912 339.504 73.2446C337.873 76.5981 329.333 85.7238 325.264 84.7789C323.718 84.4354 322.182 83.5145 320.857 82.5319C321.074 84.7006 321.165 86.8805 321.128 89.0601C320.806 110.734 303.702 123.309 297.562 117.801C293.625 114.269 288.408 121.461 288.408 121.461L262.38 62.6758C262.38 62.6758 295.541 37.0234 308.441 55.6425Z" fill="#131F2D"/>
<path d="M247.761 177.757C253.219 181.592 260.061 184.756 268.649 186.766C300.841 194.301 313.178 166.728 317.809 147.8C313.422 145.254 309.289 144.707 306.902 144.405C304.577 144.127 302.129 143.941 300.105 143.841C296.487 141.034 291.103 129.552 289.91 111.719L288.398 112.132L263.024 119.175C263.024 119.175 264.187 127.349 264.757 135.073C265.198 141.12 265.265 146.896 264.136 148.312C262.156 148.745 260.97 149.03 260.97 149.03C260.971 149.038 260.971 149.046 260.97 149.054C255.671 158.171 251.248 167.783 247.761 177.757Z" fill="#FF7955"/>
<path d="M263.024 119.176C263.024 119.176 264.19 127.34 264.753 135.074C279.128 133.614 285.8 119.746 288.397 112.139L263.024 119.176Z" fill="#EF6343"/>
<path d="M255.179 122.004C255.179 122.004 288.36 130.271 293.124 109.25C297.887 88.2289 305.373 75.1382 284.39 68.9707C263.407 62.8033 257.457 69.8641 254.182 76.4885C250.907 83.1129 246.669 119.31 255.179 122.004Z" fill="#FF7955"/>
<path d="M257.806 65.0259C264.38 59.8927 267.96 62.181 269.71 64.5895C290.204 58.6592 301.789 75.928 301.789 75.928C300.616 91.5304 306.17 103.099 306.17 103.099C306.17 103.099 299.243 105.504 286.068 98.605C282.044 96.5022 278.921 92.5406 276.518 88.0533C280.013 98.9863 286.16 107.703 286.16 107.703C271.208 96.0005 269.805 70.8841 269.7 68.2385C267.248 69.6128 262.336 72.7051 260.207 76.3678C257.342 81.3361 254.104 92.1729 251.025 91.0769C251.042 91.0803 247.937 72.7258 257.806 65.0259Z" fill="#131F2D"/>
<path d="M247.764 151.713C252.399 149.215 258.359 147.363 264.845 145.999C264.845 145.999 268.188 154.723 278.376 154.534C288.056 154.352 297.633 143.501 298.566 142.422C309.656 142.079 317.809 142.422 317.809 142.422C317.809 142.422 341.169 179.468 338.277 188.044C336.444 193.513 334.92 199.084 333.713 204.729C329.715 223.652 328.926 243.127 331.381 262.318C331.917 266.3 332.398 268.537 332.398 268.537L258.827 270.255C258.827 270.255 252.725 248.265 248.212 229.498C248.076 228.935 247.942 228.375 247.809 227.818C244.757 234.216 236.051 243.84 232.118 244.596C231.881 244.64 230.762 244.664 229.189 244.678C223.3 244.726 211.898 244.809 211.898 244.809C209.697 227.124 238.193 155.939 247.764 151.713Z" fill="#264196"/>
<path d="M331.371 262.301C328.921 243.115 329.714 223.646 333.713 204.729C333.69 204.437 333.679 204.283 333.679 204.283C333.679 204.283 313.551 223.771 310.072 244.139C307.689 258.037 322.186 261.666 331.371 262.301Z" fill="#0D2676"/>
<path d="M274.148 244.668C274.565 243.324 281.404 235.886 285.021 235.047C288.639 234.209 300.579 236.985 300.579 236.985C315.487 234.901 330.225 231.722 344.678 227.475C348.163 226.444 351.74 225.327 355.371 224.097L325.238 196.548L298.576 142.422C298.576 142.422 319.403 144.092 325.126 147.549C345.715 159.987 385.644 229.096 384.921 244.128C384.921 244.128 375.259 244.668 357.609 244.895C344.047 245.073 325.861 245.582 303.627 244.998C301.956 245.261 300.256 245.295 298.576 245.097L274.148 244.668Z" fill="#FF7955"/>
<path d="M312.015 183.891L351.818 224.414C349.197 225.421 346.465 226.853 344.698 227.468C344.698 227.468 347.126 238.068 357.619 244.895C375.269 244.668 385.169 244.668 385.169 244.668C385.891 229.636 347.509 156.507 326.916 144.072C321.193 140.616 298.586 142.423 298.586 142.423L312.015 183.891Z" fill="#264196"/>
<path d="M211.887 244.806C213.478 244.788 231.867 244.637 232.104 244.593C236.037 243.837 244.73 234.213 247.795 227.815C247.927 228.372 246.818 221.758 245.791 219.078C244.342 215.384 242.608 211.811 240.607 208.392C230.039 206.791 211.86 234.622 211.887 244.806Z" fill="#0D2676"/>
<path d="M212.515 228.001C216.322 199.299 222.065 170.896 229.704 142.99H229.762C230.341 140.729 234.908 123.062 236.817 121.12C238.851 119.059 249.619 114.719 251.473 114.249C251.545 114.661 251.507 115.085 251.364 115.478C251.221 115.871 250.978 116.219 250.66 116.485C250.119 116.929 249.553 117.341 248.965 117.719L251.514 119.093C251.18 119.354 250.798 119.545 250.391 119.653C249.983 119.762 249.558 119.786 249.141 119.725C248.337 119.581 247.545 119.381 246.768 119.128C246.239 119.471 245.717 119.77 245.242 120.048C244.442 120.818 243.493 121.787 243.408 122.134C243.313 122.546 242.967 124.354 242.75 125.498C243.112 125.188 243.433 124.832 243.706 124.439C244.723 122.842 246.859 123.003 246.859 123.003C246.859 123.003 243.937 126.724 243.662 129.133C243.242 132.802 241.218 134.727 241.218 134.727C240.475 135.613 239.431 136.407 238.546 138.269C237.898 139.643 237.644 142.234 237.465 143.732C237.027 149.154 235.529 169.13 235.939 183.843C236.488 203.64 238.339 221.387 236.142 232.399C235.576 235.251 234.739 237.649 233.535 239.515C228.748 246.96 211.915 244.789 211.915 244.789C211.915 244.789 211.165 238.364 212.515 228.001Z" fill="#FF7955"/>
<path d="M211.887 244.805C211.887 244.805 228.72 246.976 233.508 239.531C234.711 237.665 235.542 235.267 236.115 232.415C232.095 233.388 227.918 233.498 223.854 232.737C219.789 231.977 215.927 230.363 212.515 228C211.165 238.363 211.887 244.805 211.887 244.805Z" fill="#599DAD"/>
<path d="M263.244 239.751C264.531 239.751 265.765 240.269 266.675 241.192C267.585 242.114 268.096 243.364 268.096 244.668H207.253V239.751H263.244Z" fill="#131F2D"/>
<path d="M207.412 177.5H113.323L135.892 244.668H230.592L207.412 177.5Z" fill="#131F2D"/>
<path d="M206.026 177.497L229.206 244.668H134.506L111.94 177.497H206.026Z" fill="#131F2D"/>
<path d="M166.193 205.815C168.725 205.815 171.255 207.877 171.838 210.461C172.421 213.045 170.844 215.11 168.312 215.11C165.779 215.11 163.253 213.027 162.667 210.461C162.08 207.894 163.66 205.815 166.193 205.815Z" fill="url(#paint1_linear_15_136)"/>
<path d="M117.988 298.55H451.959L443.341 271.197C438.323 255.275 425.155 244.668 410.4 244.668H149.8C138.951 244.668 129.4 252.914 126.406 264.902L117.988 298.55Z" fill="#364154"/>
<path d="M51.2727 298.55H373.381L374.001 284.765C374.991 262.964 359.86 244.668 340.843 244.668H83.0811C72.2319 244.668 62.6779 252.914 59.6876 264.902L51.2727 298.55Z" fill="#657285"/>
<path d="M586.902 297.104H0.901836C0.403766 297.104 0 297.513 0 298.017V299.086C0 299.591 0.403766 300 0.901836 300H586.902C587.4 300 587.804 299.591 587.804 299.086V298.017C587.804 297.513 587.4 297.104 586.902 297.104Z" fill="#D2D2D2"/>
<defs>
<linearGradient id="paint0_linear_15_136" x1="184.167" y1="9.57044" x2="302.852" y2="308.273" gradientUnits="userSpaceOnUse">
<stop stop-color="#E3FF9B"/>
<stop offset="1" stop-color="#9CFDBA"/>
</linearGradient>
<linearGradient id="paint1_linear_15_136" x1="167.252" y1="205.815" x2="167.252" y2="215.11" gradientUnits="userSpaceOnUse">
<stop stop-color="#90E344"/>
<stop offset="1" stop-color="#6CB42A"/>
</linearGradient>
</defs>
</svg>
