<svg width="436" height="364" viewBox="0 0 436 364" fill="none" xmlns="http://www.w3.org/2000/svg">
<path d="M88.9316 174.023C88.9316 174.023 101.788 177.127 106.515 187.113C111.241 197.099 129.621 203.411 129.621 203.411C129.621 203.411 132 220.226 129.621 219.968C127.242 219.709 94.7133 211.027 90.3176 205.377C85.9218 199.727 88.9316 174.023 88.9316 174.023Z" fill="url(#paint0_linear_45_97)"/>
<path d="M189.237 32.2674C189.237 32.2674 208.889 38.5796 235.988 38.383C247.365 38.3002 244.314 39.4178 245.565 45.2333C246.817 51.0488 231.426 56.9471 217.825 56.5332C204.224 56.1193 187.696 55.1673 185.183 50.1485C182.67 45.1298 189.237 32.2674 189.237 32.2674Z" fill="#264196"/>
<path d="M152.106 79.2157C152.106 79.2157 133.748 49.2069 140.491 43.5466C152.437 33.4574 182.184 28.0868 190.665 32.8986C193.251 34.368 191.865 45.0987 191.079 47.4994C180.043 81.3681 208.403 81.4095 185.183 84.131C161.963 86.8525 152.106 79.2157 152.106 79.2157Z" fill="#264196"/>
<path d="M159.564 24.2892L154.589 36.034C154.589 36.034 157.568 40.4422 162.212 39.0039C163.533 38.6235 164.751 37.9482 165.774 37.0287C166.797 36.1092 167.598 34.9695 168.117 33.6954L159.564 24.2892Z" fill="#FFC09C"/>
<path d="M160.009 24.8686C160.009 24.8686 159.088 24.8686 158.85 24.3305C158.612 23.7924 159.884 18.6806 160.329 18.4633C160.662 18.3157 161.039 18.3022 161.382 18.4255C161.725 18.5488 162.007 18.7995 162.17 19.1255C162.563 19.9534 160.009 24.8686 160.009 24.8686Z" fill="#FFD8BC"/>
<path d="M179.443 19.0117C179.554 20.7948 179.418 22.5846 179.04 24.3305C178.45 26.2449 175.751 26.9278 173.703 32.4226C173.289 33.5505 168.769 37.669 166.856 37.5965C164.756 37.4801 162.735 36.7617 161.033 35.5269C160.329 34.9061 158.374 33.6954 159.295 25.4998C159.585 22.9336 164.828 10.6506 165.832 10.423C166.835 10.1953 179.877 12.7409 179.443 19.0117Z" fill="#FFD8BC"/>
<path d="M165.831 10.3919C165.831 10.3919 164.694 9.53304 162.997 11.9958C161.839 13.6722 160.929 20.5742 160.846 21.0709C160.763 21.5676 160.639 22.53 160.639 22.53C161.186 22.2804 161.681 21.9292 162.098 21.4952C162.615 20.8743 163.339 16.7352 165.562 14.8105C167.786 12.8858 169.296 12.2649 168.231 11.0749C167.944 10.7352 167.563 10.4887 167.135 10.3671C166.708 10.2454 166.254 10.2541 165.831 10.3919Z" fill="#0A0A0A"/>
<path d="M177.747 12.0062C176.379 10.8119 174.762 9.93848 173.014 9.44972C171.265 8.96095 169.43 8.86922 167.642 9.18122C167.024 9.35892 166.466 9.69961 166.026 10.1675C165.585 10.6355 165.279 11.2134 165.139 11.8406L167 12.9892C166.641 13.1639 166.326 13.4175 166.079 13.7311C165.832 14.0447 165.659 14.4102 165.573 14.8001C164.053 22.9853 173.599 26.0276 178.864 26.1C179.757 26.1712 180.647 25.9263 181.379 25.4082C182.11 24.89 182.637 24.1314 182.866 23.2647C182.866 23.2647 180.767 14.9967 177.747 12.0062Z" fill="#0A0A0A"/>
<path d="M162.232 18.6081C162.232 18.6081 165.749 19.1669 167.404 16.9214C169.059 14.6759 165.563 13.041 165.17 13.2169C164.777 13.3928 162.232 18.6081 162.232 18.6081Z" fill="#0A0A0A"/>
<path d="M18 346H436C436 346 432.503 251.044 410.775 255.149C389.047 259.254 398.959 153.706 371.593 53.4538C351.417 -20.4423 308.2 -21.8381 283.182 75.212C258.164 172.262 141.01 46.2694 106.918 120.165C72.8263 194.062 86.2871 263.852 61.4554 251.536C36.6238 239.22 20.0693 296.777 18 346Z" fill="url(#paint1_linear_45_97)"/>
<path d="M235.988 38.383V41.4149C235.988 41.4149 239.029 44.5193 240.518 44.8711C242.295 45.1006 244.084 45.2216 245.876 45.2333C245.876 45.2333 246.496 43.7432 245.255 43.381C244.014 43.0188 241.966 42.2634 241.966 42.2634L241.552 41.4149H253.343C253.343 41.4149 253.343 40.5457 252.723 40.287C252.102 40.0283 246.91 38.4347 246.134 38.3312C245.359 38.2278 235.988 38.383 235.988 38.383Z" fill="#FFD8BC"/>
<path d="M89.3142 364C118.772 364 142.653 360.924 142.653 357.129C142.653 353.334 118.772 350.258 89.3142 350.258C59.8561 350.258 35.9756 353.334 35.9756 357.129C35.9756 360.924 59.8561 364 89.3142 364Z" fill="url(#paint2_linear_45_97)"/>
<path d="M354.89 364C384.348 364 408.229 360.924 408.229 357.129C408.229 353.334 384.348 350.258 354.89 350.258C325.432 350.258 301.552 353.334 301.552 357.129C301.552 360.924 325.432 364 354.89 364Z" fill="url(#paint3_linear_45_97)"/>
<path d="M327.896 344.08V65.7738C327.896 64.6308 326.969 63.7043 325.827 63.7043L120.685 63.7043C119.542 63.7043 118.616 64.6308 118.616 65.7738L118.616 344.08C118.616 345.223 119.542 346.15 120.685 346.15H325.827C326.969 346.15 327.896 345.223 327.896 344.08Z" fill="#B8C1C9"/>
<path d="M317.521 335.761V76.515L131.431 76.515L131.431 335.761H317.521Z" fill="#555555"/>
<path d="M315.091 333.329V76.515L131.441 76.515L131.441 333.329H315.091Z" fill="white"/>
<path d="M259.922 63.7043L259.58 61.9762L259.415 61.1587L258.877 58.4372L256.467 46.3095C255.867 43.2775 254.254 41.239 252.444 41.239H194.089C192.279 41.239 190.665 43.3086 190.055 46.3095L187.645 58.4579L187.107 61.1794L186.942 61.9969L186.6 63.725L185.721 68.1642H260.811L259.922 63.7043ZM223.256 55.2811C222.607 55.2811 221.973 55.0884 221.433 54.7275C220.894 54.3666 220.473 53.8537 220.226 53.2537C219.978 52.6537 219.913 51.9936 220.041 51.357C220.168 50.7204 220.481 50.136 220.941 49.6776C221.401 49.2193 221.986 48.9077 222.622 48.7823C223.259 48.6569 223.919 48.7233 224.518 48.9732C225.117 49.223 225.628 49.6451 225.987 50.1859C226.346 50.7267 226.537 51.3619 226.534 52.0111C226.535 52.4414 226.45 52.8675 226.285 53.2649C226.12 53.6623 225.878 54.0232 225.574 54.327C225.269 54.6308 224.907 54.8714 224.51 55.0351C224.112 55.1989 223.686 55.2824 223.256 55.2811Z" fill="#B8C1C9"/>
<path d="M259.911 63.7042H186.59L186.931 61.9761L187.097 61.1587H259.404L259.57 61.9761L259.911 63.7042Z" fill="#555555"/>
<path d="M258.215 151.723H151.331V169.636H258.215V151.723Z" fill="url(#paint4_linear_45_97)"/>
<path d="M292.233 151.723H274.216V169.749H292.233V151.723Z" fill="url(#paint5_linear_45_97)"/>
<path d="M258.215 195.961H151.331V213.873H258.215V195.961Z" fill="url(#paint6_linear_45_97)"/>
<path d="M292.233 195.961H274.216V213.987H292.233V195.961Z" fill="url(#paint7_linear_45_97)"/>
<path d="M258.215 240.198H151.331V258.11H258.215V240.198Z" fill="url(#paint8_linear_45_97)"/>
<path d="M292.233 240.198H274.216V258.224H292.233V240.198Z" fill="url(#paint9_linear_45_97)"/>
<path d="M258.215 284.435H151.331V302.347H258.215V284.435Z" fill="url(#paint10_linear_45_97)"/>
<path d="M292.233 284.435H274.216V302.461H292.233V284.435Z" fill="url(#paint11_linear_45_97)"/>
<path d="M259.961 88.9864L155.022 109.299L158.423 126.885L263.361 106.572L259.961 88.9864Z" fill="url(#paint12_linear_45_97)"/>
<path d="M151.889 44.3848C149.997 40.7009 141.846 39.604 138.071 46.5371C130.024 61.3139 135.64 79.7642 140.036 89.0256C145.715 101.019 174.385 107.931 174.385 107.931C174.385 107.931 177.323 97.666 177.105 96.8382C176.888 96.0104 152.831 88.3219 155.468 63.2076C156.22 56.7151 154.971 50.1478 151.889 44.3848Z" fill="#264196"/>
<path d="M174.996 105.831C176.438 106.737 178.001 107.434 179.64 107.9C182.256 108.635 188.017 107 188.224 106.503C188.431 106.006 188.09 99.0837 187.055 98.5766C186.021 98.0696 177.126 96.8382 177.126 96.8382L174.996 105.831Z" fill="#FFD8BC"/>
<path d="M383.695 308.546H326.106C325.283 308.546 324.494 308.219 323.912 307.636C323.33 307.054 323.003 306.265 323.003 305.441C323.003 304.618 323.33 303.828 323.912 303.246C324.494 302.664 325.283 302.337 326.106 302.337H383.695C384.518 302.337 385.308 302.664 385.889 303.246C386.471 303.828 386.798 304.618 386.798 305.441C386.798 306.265 386.471 307.054 385.889 307.636C385.308 308.219 384.518 308.546 383.695 308.546Z" fill="#233862"/>
<path d="M338.507 308.546H332.56V354.418H338.507V308.546Z" fill="#264196"/>
<path d="M377.552 308.546H371.604V354.418H377.552V308.546Z" fill="#264196"/>
<path d="M40.5679 225.214C40.5679 225.214 44.9636 229.509 48.5837 229.726C52.2037 229.943 55.6272 226.797 55.6272 226.797L50.2385 222.224L40.5679 225.214Z" fill="#FFBF9D"/>
<path d="M104.425 348.851C103.081 348.758 102.802 349.886 98.7264 348.602L98.5195 348.54C98.5195 348.54 87.4422 291.047 80.047 264.05C77.1717 294.452 73.0552 348.54 73.0552 348.54L72.8586 348.602C68.7835 349.865 68.4939 348.758 67.1493 348.851C66.4977 348.902 59.0094 288.243 62.5157 247.773L97.0715 246.334C102.657 286.763 105.118 348.902 104.425 348.851Z" fill="#233862"/>
<path d="M98.6026 347.133C98.6026 347.133 98.4165 352.131 98.8716 353.714C99.3267 355.297 103.009 355.525 104.043 355.98C106.784 357.194 109.712 357.929 112.7 358.153C114.231 358.34 114.438 357.243 112.607 356.312C109.034 354.542 106.188 351.582 104.56 347.94L98.6026 347.133Z" fill="#321707"/>
<path d="M73.0655 347.133C73.0655 347.133 73.2517 352.131 72.7966 353.714C72.3415 355.297 68.6594 355.525 67.6251 355.98C64.8806 357.193 61.9494 357.928 58.9577 358.153C57.4373 358.34 57.2304 357.243 59.0611 356.312C62.6315 354.538 65.4757 351.579 67.1079 347.94L73.0655 347.133Z" fill="#321707"/>
<path d="M100.816 244.875C100.754 246.158 99.6882 246.893 98.4471 247.266C93.9893 248.58 80.864 249.739 71.5037 249.904C65.722 250.008 61.3572 249.739 61.2745 248.921C60.7677 243.623 60.1471 238.149 59.4852 232.685C56.2478 205.946 51.7176 179.435 54.0861 178.1C64.5015 172.233 77.544 172.875 88.9316 174.023C93.4204 174.478 98.8194 187.113 98.5298 199.893C98.1575 216.098 101.302 235.593 100.816 244.875Z" fill="url(#paint13_linear_45_97)"/>
<path d="M70.9456 163.241C70.9456 163.241 70.0148 163.479 69.6217 163.054C69.2287 162.63 68.8874 157.073 69.3218 156.69C69.6137 156.438 69.9916 156.308 70.3768 156.327C70.762 156.347 71.125 156.514 71.3904 156.794C72.011 157.518 70.9456 163.241 70.9456 163.241Z" fill="#FFD8BC"/>
<path d="M75.01 178.369C73.9219 177.991 72.9496 177.339 72.1863 176.476C71.9921 176.266 71.8454 176.017 71.7562 175.746C71.6669 175.474 71.6373 175.187 71.6692 174.903L72.7035 165.538L84.36 164.793L84.5565 175.255C82.9223 178.524 78.2163 179.373 75.01 178.369Z" fill="#FFC09C"/>
<path d="M88.694 151.403C88.694 151.403 90.0489 153.234 88.7664 156.649C86.7702 161.978 88.4147 160.788 87.0288 166.645C86.7392 167.866 84.2775 172.502 82.1469 173.713C79.6439 175.141 76.117 174.023 75.2171 173.609C74.3173 173.195 71.9901 172.574 70.418 164.058C69.9215 161.388 71.4523 147.439 72.3831 146.901C73.314 146.363 87.2253 144.966 88.694 151.403Z" fill="#FFD8BC"/>
<path d="M72.3829 146.901C72.3829 146.901 71.1831 146.798 70.9866 148.971C70.7901 151.144 70.5418 158.677 70.6349 159.195C70.6753 159.722 70.6753 160.251 70.6349 160.778C70.8653 160.767 71.0872 160.688 71.2716 160.549C71.4561 160.411 71.5947 160.22 71.6692 160.002C72.0002 159.226 71.7933 154.062 73.4379 151.444C75.0824 148.826 76.4166 147.75 74.979 146.881C74.5926 146.627 74.1399 146.494 73.6778 146.497C73.2157 146.501 72.7651 146.642 72.3829 146.901Z" fill="#4A3D6D"/>
<path d="M7.85303 209.899L15.2069 189.141L113.879 224.531L106.525 245.289L7.85303 209.899Z" fill="#FFBB00"/>
<path d="M9.93262 204.022L13.1182 195.019L111.8 230.409L108.604 239.411L9.93262 204.022Z" fill="#FFCC26"/>
<path d="M106.525 245.289L113.879 224.531L126.445 234.838L131.751 239.184L139.022 245.134L129.631 245.175L122.774 245.217L106.525 245.289Z" fill="#FFBF9D"/>
<path d="M129.631 245.175L131.752 239.184L139.023 245.134L129.631 245.175Z" fill="#4A3D6D"/>
<path d="M11.6388 211.244L3.98501 208.533C2.48822 208 1.26422 206.894 0.581652 205.458C-0.100914 204.022 -0.186281 202.374 0.344285 200.876L4.08843 190.352C4.08843 190.249 4.16084 190.155 4.19187 190.073C4.67627 188.935 5.57587 188.024 6.7076 187.526C7.83934 187.028 9.11817 186.981 10.2839 187.393L19.003 190.497L13.7281 205.357L11.6388 211.244Z" fill="#E4E0FF"/>
<path d="M13.7283 205.346L6.05385 202.645C4.55706 202.112 3.33307 201.006 2.6505 199.57C1.96793 198.134 1.88257 196.486 2.41313 194.988L4.15075 190.073C4.63515 188.935 5.53476 188.024 6.66649 187.526C7.79823 187.028 9.07705 186.981 10.2428 187.393L18.9619 190.497L13.7283 205.346Z" fill="#EFEDFF"/>
<path d="M54.0863 178.1C54.0863 178.1 24.4847 200.307 24.7226 206.516C24.9605 212.724 29.8113 221.499 37.703 226.176C37.703 226.176 43.4847 228.608 47.4461 224.107C47.4461 224.107 40.8369 211.793 41.8816 210.748C43.9502 208.678 62.6606 200.214 62.6606 200.214C62.6606 200.214 69.1456 178.669 54.0863 178.1Z" fill="url(#paint14_linear_45_97)"/>
<path d="M72.6107 150.213C72.6107 150.213 72.8899 156.276 77.5236 154.01C78.2223 153.657 79.0251 153.566 79.7849 153.756C80.5447 153.946 81.2106 154.404 81.6607 155.045C83.4811 157.632 84.6809 159.06 87.1011 157.353C89.5214 155.645 88.6733 159.619 91.7762 158.098C93.7413 157.125 93.3069 155.097 92.0968 153.865C91.9311 153.687 91.8043 153.477 91.7241 153.247C91.644 153.017 91.6124 152.773 91.6314 152.531C91.7658 150.627 91.6314 146.187 87.7631 145.473C87.2472 145.374 86.7172 145.374 86.2013 145.473C85.6688 145.601 85.1104 145.572 84.5944 145.388C84.0783 145.204 83.6269 144.874 83.2949 144.439C82.0641 142.741 79.6232 140.713 75.3412 141.831C65.7947 144.345 69.7457 155.345 70.6765 159.164C71.2144 161.73 72.6107 150.213 72.6107 150.213Z" fill="#233862"/>
<path d="M347.371 130.334C347.371 130.334 343.079 141.117 347.598 145.556C352.118 149.995 360.165 144.418 360.837 143.735C361.51 143.052 347.371 130.334 347.371 130.334Z" fill="#FFD8BC"/>
<path d="M347.091 207.85C347.091 207.85 331.256 204.094 331.67 208.42C335.745 250.929 340.606 302.13 341.113 302.471C342.954 303.724 344.795 301.933 344.857 301.902C344.919 301.871 351.508 219.699 347.091 207.85Z" fill="#FFBF9D"/>
<path d="M369.164 210.179C369.164 210.179 354.115 203.97 353.846 208.295C351.157 250.918 347.878 302.233 348.323 302.658C349.947 304.189 352.046 302.658 352.109 302.658C352.171 302.658 371.646 222.565 369.164 210.179Z" fill="#FFBF9D"/>
<path d="M367.312 153.255C364.161 151.809 360.886 150.649 357.528 149.788C357.972 149.509 346.099 150.275 347.185 150.037C343.627 150.947 340.189 152.277 336.945 154C335.518 154.755 338.848 156.287 339.014 157.891L346.45 191.18L334.69 201.135C334.69 202.542 336.987 203.68 338.828 203.68H347.164C350.163 203.432 351.705 202.211 352.263 201.021C353.029 201.973 354.497 202.811 356.938 203.008H365.285C367.085 203.008 365.999 206.826 365.999 205.429L359.7 190.942L367.902 159.07C368.222 156.856 369.36 154.207 367.312 153.255Z" fill="url(#paint15_linear_45_97)"/>
<path d="M341.682 166.066C341.682 166.066 331.66 192.97 309.619 243.23C309.619 243.23 336.511 266.626 387.388 250.411C387.388 250.411 380.644 204.643 362.565 181.991L341.682 166.066Z" fill="url(#paint16_linear_45_97)"/>
<path d="M301.966 133.553C299.546 129.051 290.165 129.879 290.165 129.124C290.165 128.368 290.309 127.613 291.199 127.458C292.088 127.302 305.876 126.857 306.331 127.458C306.902 128.69 307.372 129.967 307.737 131.276C307.737 131.276 302.7 134.929 301.966 133.553Z" fill="#FFD8BC"/>
<path d="M355.035 120.876C355.035 120.876 342.365 122.946 347.795 136.088C353.484 149.83 352.853 152.375 349.502 164.358C346.751 174.199 345.468 185.623 355.966 189.452C366.464 193.281 386.685 182.984 381.824 164.793C378.659 152.893 376.538 155.397 374.118 145.132C372.515 138.344 373.777 133.335 370.529 127.54C367.571 122.335 362.679 119.51 355.035 120.876Z" fill="#233862"/>
<path d="M340.607 299.046C340.607 299.046 331.35 300.785 331.122 301.623L330.895 302.471H345.912C345.912 302.471 346.295 302.006 345.912 300.267C345.53 298.529 345.313 298.146 345.013 298.146C344.713 298.146 340.607 299.046 340.607 299.046Z" fill="#264196"/>
<path d="M349.098 299.046C349.098 299.046 339.841 300.785 339.614 301.623L339.386 302.471H354.404C354.404 302.471 354.787 302.006 354.404 300.267C354.022 298.529 353.804 298.146 353.504 298.146C353.204 298.146 349.098 299.046 349.098 299.046Z" fill="#264196"/>
<path d="M341.683 166.066C341.683 166.066 314.853 163.344 312.04 160.385C309.226 157.425 301.283 133.48 301.966 133.553C302.648 133.625 309.02 130.448 309.578 130.872C310.137 131.297 318.308 152.21 321.483 152.665C324.658 153.12 346.451 150.233 346.451 150.233L341.683 166.066Z" fill="url(#paint17_linear_45_97)"/>
<path d="M307.055 108.873H289.037V126.899H307.055V108.873Z" fill="url(#paint18_linear_45_97)"/>
<defs>
<linearGradient id="paint0_linear_45_97" x1="109.302" y1="174.023" x2="109.302" y2="219.971" gradientUnits="userSpaceOnUse">
<stop stop-color="#90E344"/>
<stop offset="1" stop-color="#6CB42A"/>
</linearGradient>
<linearGradient id="paint1_linear_45_97" x1="136.779" y1="11.038" x2="302.331" y2="321.718" gradientUnits="userSpaceOnUse">
<stop stop-color="#E3FF9B"/>
<stop offset="1" stop-color="#9CFDBA"/>
</linearGradient>
<linearGradient id="paint2_linear_45_97" x1="89.3142" y1="364" x2="89.3142" y2="349.369" gradientUnits="userSpaceOnUse">
<stop stop-color="#77D28C"/>
<stop offset="1" stop-color="#345C58"/>
</linearGradient>
<linearGradient id="paint3_linear_45_97" x1="354.89" y1="364" x2="354.89" y2="349.369" gradientUnits="userSpaceOnUse">
<stop stop-color="#77D28C"/>
<stop offset="1" stop-color="#345C58"/>
</linearGradient>
<linearGradient id="paint4_linear_45_97" x1="204.773" y1="151.723" x2="204.773" y2="169.636" gradientUnits="userSpaceOnUse">
<stop stop-color="#90E344"/>
<stop offset="1" stop-color="#6CB42A"/>
</linearGradient>
<linearGradient id="paint5_linear_45_97" x1="283.225" y1="151.723" x2="283.225" y2="169.749" gradientUnits="userSpaceOnUse">
<stop stop-color="#90E344"/>
<stop offset="1" stop-color="#6CB42A"/>
</linearGradient>
<linearGradient id="paint6_linear_45_97" x1="204.773" y1="195.961" x2="204.773" y2="213.873" gradientUnits="userSpaceOnUse">
<stop stop-color="#90E344"/>
<stop offset="1" stop-color="#6CB42A"/>
</linearGradient>
<linearGradient id="paint7_linear_45_97" x1="283.225" y1="195.961" x2="283.225" y2="213.987" gradientUnits="userSpaceOnUse">
<stop stop-color="#90E344"/>
<stop offset="1" stop-color="#6CB42A"/>
</linearGradient>
<linearGradient id="paint8_linear_45_97" x1="204.773" y1="240.198" x2="204.773" y2="258.11" gradientUnits="userSpaceOnUse">
<stop stop-color="#90E344"/>
<stop offset="1" stop-color="#6CB42A"/>
</linearGradient>
<linearGradient id="paint9_linear_45_97" x1="283.225" y1="240.198" x2="283.225" y2="258.224" gradientUnits="userSpaceOnUse">
<stop stop-color="#90E344"/>
<stop offset="1" stop-color="#6CB42A"/>
</linearGradient>
<linearGradient id="paint10_linear_45_97" x1="204.773" y1="284.435" x2="204.773" y2="302.347" gradientUnits="userSpaceOnUse">
<stop stop-color="#90E344"/>
<stop offset="1" stop-color="#6CB42A"/>
</linearGradient>
<linearGradient id="paint11_linear_45_97" x1="283.225" y1="284.435" x2="283.225" y2="302.461" gradientUnits="userSpaceOnUse">
<stop stop-color="#90E344"/>
<stop offset="1" stop-color="#6CB42A"/>
</linearGradient>
<linearGradient id="paint12_linear_45_97" x1="207.491" y1="99.1427" x2="210.895" y2="116.728" gradientUnits="userSpaceOnUse">
<stop stop-color="#90E344"/>
<stop offset="1" stop-color="#6CB42A"/>
</linearGradient>
<linearGradient id="paint13_linear_45_97" x1="77.1468" y1="173.26" x2="77.1468" y2="249.925" gradientUnits="userSpaceOnUse">
<stop stop-color="#90E344"/>
<stop offset="1" stop-color="#6CB42A"/>
</linearGradient>
<linearGradient id="paint14_linear_45_97" x1="44.3852" y1="178.1" x2="44.3852" y2="226.832" gradientUnits="userSpaceOnUse">
<stop stop-color="#90E344"/>
<stop offset="1" stop-color="#6CB42A"/>
</linearGradient>
<linearGradient id="paint15_linear_45_97" x1="351.598" y1="149.726" x2="351.598" y2="205.736" gradientUnits="userSpaceOnUse">
<stop stop-color="#90E344"/>
<stop offset="1" stop-color="#6CB42A"/>
</linearGradient>
<linearGradient id="paint16_linear_45_97" x1="348.503" y1="166.066" x2="348.503" y2="256.134" gradientUnits="userSpaceOnUse">
<stop stop-color="#90E344"/>
<stop offset="1" stop-color="#6CB42A"/>
</linearGradient>
<linearGradient id="paint17_linear_45_97" x1="324.188" y1="130.833" x2="324.188" y2="166.066" gradientUnits="userSpaceOnUse">
<stop stop-color="#90E344"/>
<stop offset="1" stop-color="#6CB42A"/>
</linearGradient>
<linearGradient id="paint18_linear_45_97" x1="298.046" y1="108.873" x2="298.046" y2="126.899" gradientUnits="userSpaceOnUse">
<stop stop-color="#90E344"/>
<stop offset="1" stop-color="#6CB42A"/>
</linearGradient>
</defs>
</svg>
